<svg width="401" height="91" viewBox="0 0 401 91" fill="none" xmlns="http://www.w3.org/2000/svg">
<g clip-path="url(#clip0_65_23)">
<path d="M44 25L9 7.62069L44 7V25Z" fill="black"/>
<path d="M44 27.8672L27.4631 24L0 30.9985L16.0201 39.5815L14.2114 57L40.1611 42.8203L44 27.8672Z" fill="black"/>
<path d="M66.3594 29.0234H57.5469L58.3672 24.1953L65.1641 24.2188C66.1953 24.2188 67.1797 24.0781 68.1172 23.7969C69.0703 23.5 69.8672 23.0234 70.5078 22.3672C71.1641 21.6953 71.5781 20.7969 71.75 19.6719C71.8906 18.6094 71.7969 17.7734 71.4688 17.1641C71.1406 16.5547 70.6172 16.1172 69.8984 15.8516C69.1953 15.5703 68.3594 15.4219 67.3906 15.4062L62.3281 15.3828L57.3594 44H50.4922L56.3984 9.875L67.6016 9.89844C69.0703 9.91406 70.4922 10.0859 71.8672 10.4141C73.2422 10.7422 74.4609 11.2578 75.5234 11.9609C76.5859 12.6641 77.4062 13.5938 77.9844 14.75C78.5781 15.9062 78.8203 17.3281 78.7109 19.0156C78.6016 20.8594 78.0703 22.375 77.1172 23.5625C76.1641 24.7344 74.9453 25.6172 73.4609 26.2109C71.9922 26.8047 70.4141 27.1484 68.7266 27.2422L66.3594 29.0234ZM63.5703 44H52.9297L56.5391 38.5156L63.7812 38.5391C64.8125 38.5391 65.7734 38.3672 66.6641 38.0234C67.5703 37.6641 68.3281 37.1328 68.9375 36.4297C69.5469 35.7266 69.9297 34.8281 70.0859 33.7344C70.2266 32.8125 70.1875 32.0078 69.9688 31.3203C69.75 30.6172 69.3438 30.0781 68.75 29.7031C68.1719 29.3125 67.3984 29.0938 66.4297 29.0469L59.4922 29.0234L60.3594 24.1953L68.3281 24.2188L69.5 26.0938C71.0312 26.1719 72.3594 26.5234 73.4844 27.1484C74.625 27.7578 75.4922 28.625 76.0859 29.75C76.6797 30.875 76.9219 32.2266 76.8125 33.8047C76.6562 36.2422 75.9453 38.2109 74.6797 39.7109C73.4141 41.2109 71.7969 42.3047 69.8281 42.9922C67.875 43.6797 65.7891 44.0156 63.5703 44ZM110.492 26.0234L110.305 27.6641C109.992 29.8516 109.406 31.9609 108.547 33.9922C107.688 36.0234 106.562 37.8359 105.172 39.4297C103.781 41.0078 102.125 42.2578 100.203 43.1797C98.2969 44.0859 96.1328 44.5156 93.7109 44.4688C91.3984 44.4219 89.4375 43.9219 87.8281 42.9688C86.2344 42 84.9688 40.7188 84.0312 39.125C83.1094 37.5312 82.4922 35.7578 82.1797 33.8047C81.8672 31.8359 81.8359 29.8203 82.0859 27.7578L82.2734 26.1406C82.5859 23.9531 83.1719 21.8516 84.0312 19.8359C84.9062 17.8203 86.0391 16.0234 87.4297 14.4453C88.8359 12.8516 90.4922 11.6016 92.3984 10.6953C94.3203 9.78906 96.4766 9.35938 98.8672 9.40625C101.18 9.4375 103.133 9.9375 104.727 10.9062C106.336 11.8594 107.602 13.1328 108.523 14.7266C109.461 16.3047 110.086 18.0781 110.398 20.0469C110.711 22 110.742 23.9922 110.492 26.0234ZM103.344 27.7578L103.578 26.0703C103.703 25.0078 103.766 23.8594 103.766 22.625C103.781 21.375 103.641 20.1797 103.344 19.0391C103.047 17.8828 102.516 16.9375 101.75 16.2031C101 15.4531 99.9141 15.0469 98.4922 14.9844C96.9609 14.9375 95.6484 15.2422 94.5547 15.8984C93.4766 16.5547 92.5703 17.4453 91.8359 18.5703C91.1172 19.6797 90.5469 20.8984 90.125 22.2266C89.7188 23.5391 89.4219 24.8281 89.2344 26.0938L89.0234 27.7812C88.8828 28.8281 88.8047 29.9844 88.7891 31.25C88.7891 32.5 88.9375 33.7031 89.2344 34.8594C89.5312 36 90.0625 36.9453 90.8281 37.6953C91.5938 38.4453 92.6875 38.8516 94.1094 38.9141C95.625 38.9609 96.9219 38.6484 98 37.9766C99.0938 37.3047 100.008 36.4141 100.742 35.3047C101.477 34.1797 102.055 32.9609 102.477 31.6484C102.898 30.3203 103.188 29.0234 103.344 27.7578ZM142.602 26.0234L142.414 27.6641C142.102 29.8516 141.516 31.9609 140.656 33.9922C139.797 36.0234 138.672 37.8359 137.281 39.4297C135.891 41.0078 134.234 42.2578 132.312 43.1797C130.406 44.0859 128.242 44.5156 125.82 44.4688C123.508 44.4219 121.547 43.9219 119.938 42.9688C118.344 42 117.078 40.7188 116.141 39.125C115.219 37.5312 114.602 35.7578 114.289 33.8047C113.977 31.8359 113.945 29.8203 114.195 27.7578L114.383 26.1406C114.695 23.9531 115.281 21.8516 116.141 19.8359C117.016 17.8203 118.148 16.0234 119.539 14.4453C120.945 12.8516 122.602 11.6016 124.508 10.6953C126.43 9.78906 128.586 9.35938 130.977 9.40625C133.289 9.4375 135.242 9.9375 136.836 10.9062C138.445 11.8594 139.711 13.1328 140.633 14.7266C141.57 16.3047 142.195 18.0781 142.508 20.0469C142.82 22 142.852 23.9922 142.602 26.0234ZM135.453 27.7578L135.688 26.0703C135.812 25.0078 135.875 23.8594 135.875 22.625C135.891 21.375 135.75 20.1797 135.453 19.0391C135.156 17.8828 134.625 16.9375 133.859 16.2031C133.109 15.4531 132.023 15.0469 130.602 14.9844C129.07 14.9375 127.758 15.2422 126.664 15.8984C125.586 16.5547 124.68 17.4453 123.945 18.5703C123.227 19.6797 122.656 20.8984 122.234 22.2266C121.828 23.5391 121.531 24.8281 121.344 26.0938L121.133 27.7812C120.992 28.8281 120.914 29.9844 120.898 31.25C120.898 32.5 121.047 33.7031 121.344 34.8594C121.641 36 122.172 36.9453 122.938 37.6953C123.703 38.4453 124.797 38.8516 126.219 38.9141C127.734 38.9609 129.031 38.6484 130.109 37.9766C131.203 37.3047 132.117 36.4141 132.852 35.3047C133.586 34.1797 134.164 32.9609 134.586 31.6484C135.008 30.3203 135.297 29.0234 135.453 27.7578ZM157.227 9.875L151.297 44H144.43L150.336 9.875H157.227ZM177.289 9.875L161.117 26.8672L151.977 35.3047L151.93 28.1328L158.188 21.0547L168.406 9.875H177.289ZM163.531 44L156.406 27.9688L161.938 23.8203L171.312 44H163.531ZM183.172 38.2578L194.117 9.875H197.773L198.008 14.9375L186.477 44H182.492L183.172 38.2578ZM184.227 9.875L185.211 38.8906L184.039 44H179.562L177.547 9.875H184.227ZM200.094 38.1641L209.867 9.875H216.805L204.125 44H199.695L200.094 38.1641ZM199.93 9.875L202.109 39.0312L201.219 44H197.211L194.703 14.3516L196.18 9.875H199.93ZM232.109 16.0625L218.375 44H210.828L229.062 9.875H233.891L232.109 16.0625ZM234.828 44L230.656 15.3359L230.914 9.875H235.438L241.883 44H234.828ZM236.562 31.2969L235.602 36.8047H218.047L219.008 31.2969H236.562ZM250.977 9.875L263 9.89844C265.078 9.92969 266.961 10.3125 268.648 11.0469C270.352 11.7812 271.672 12.8828 272.609 14.3516C273.562 15.8203 273.961 17.6875 273.805 19.9531C273.648 21.8125 273.195 23.3828 272.445 24.6641C271.711 25.9453 270.719 27.0312 269.469 27.9219C268.234 28.8125 266.812 29.5781 265.203 30.2188L262.812 31.3672H251.703L252.641 25.8828L260.281 25.9297C261.422 25.9141 262.461 25.6953 263.398 25.2734C264.336 24.8516 265.109 24.2422 265.719 23.4453C266.344 22.6328 266.734 21.6484 266.891 20.4922C267.031 19.4766 266.961 18.5938 266.68 17.8438C266.414 17.0938 265.953 16.5078 265.297 16.0859C264.641 15.6641 263.805 15.4375 262.789 15.4062L256.906 15.3828L251.938 44H245.07L250.977 9.875ZM263.75 44L258.828 28.7891L265.742 28.7422L271.062 43.625V44H263.75ZM285.5 44H277.906L278.891 38.5156L285.711 38.5625C287.836 38.5625 289.625 38.0625 291.078 37.0625C292.531 36.0469 293.672 34.7188 294.5 33.0781C295.344 31.4219 295.914 29.6328 296.211 27.7109L296.422 26.0469C296.562 24.8594 296.609 23.6562 296.562 22.4375C296.516 21.2031 296.289 20.0625 295.883 19.0156C295.492 17.9688 294.867 17.1172 294.008 16.4609C293.148 15.8047 291.984 15.4531 290.516 15.4062L282.734 15.3828L283.695 9.875L290.727 9.89844C293.008 9.94531 294.992 10.4141 296.68 11.3047C298.367 12.1797 299.75 13.3672 300.828 14.8672C301.906 16.3672 302.656 18.0859 303.078 20.0234C303.5 21.9453 303.586 23.9688 303.336 26.0938L303.148 27.7578C302.836 30.0391 302.188 32.1719 301.203 34.1562C300.234 36.1406 298.977 37.875 297.43 39.3594C295.898 40.8281 294.125 41.9766 292.109 42.8047C290.094 43.6172 287.891 44.0156 285.5 44ZM287.727 9.875L281.797 44H274.93L280.836 9.875H287.727ZM328.438 38.5156L327.477 44H309.828L310.766 38.5156H328.438ZM318.008 9.875L312.078 44H305.211L311.117 9.875H318.008ZM328.695 23.7734L327.758 29.1172H312.406L313.344 23.7734H328.695ZM333.359 9.875L332.398 15.3828H314.773L315.758 9.875H333.359ZM364.32 9.875L358.391 44H351.734L342.289 20.8672L338.281 44H331.414L337.32 9.875H344L353.469 33.0312L357.477 9.875H364.32Z" fill="black"/>
</g>
<defs>
<clipPath id="clip0_65_23">
<rect width="401" height="91" fill="white"/>
</clipPath>
</defs>
</svg>
