<svg width="191" height="264" viewBox="0 0 191 264" fill="none" xmlns="http://www.w3.org/2000/svg">
<path d="M9.94203 230.168H189.085C192.81 233.147 189.334 235.009 187.596 235.382C137.068 236.003 26.7018 235.382 18.1357 235.382C11.4318 235.382 6.21763 236.04 6.21763 241.713C6.21763 253.631 5.47276 255.866 9.94203 255.866H187.596C192.661 255.866 190.585 263.295 187.596 263.315C131.606 263.687 18.6571 263.315 14.7837 263.315C10.9104 263.315 5.10031 262.942 2.86567 259.218C-0.933222 252.886 -0.115199 241.645 0.631038 238.361C2.05423 232.099 6.96251 229.919 9.94203 230.168Z" fill="#FF7A00"/>
<path d="M11.0682 200.372H180.929C184.214 203.62 181.302 205.416 179.436 205.908H13.3081V223.252C65.9462 222.76 171.969 223.252 179.436 223.252C186.902 223.252 179.436 229.894 179.436 229.894C125.18 230.509 17.5639 229.894 15.1747 229.894C7.33496 229.894 8.95268 226.45 7.33496 224.728V205.908C7.33496 203.841 9.82376 201.356 11.0682 200.372Z" fill="#2D1A79" stroke="black"/>
<path d="M6.33876 13.0354C7.23261 3.79888 12.6702 0.496586 15.2773 0H169.84V200C118.319 200.621 14.4579 201.49 11.1805 200C7.903 198.51 6.58705 193.172 6.33876 190.689C5.96632 135.32 5.4449 22.2719 6.33876 13.0354Z" fill="#FF7A00"/>
<path d="M15.156 199.628V1.11734C9.19697 1.11734 6.71404 9.80759 6.21746 14.1527C5.96916 70.0186 5.62155 183.762 6.21746 191.806C6.81336 199.851 12.4248 200.372 15.156 199.628Z" fill="#D9771C"/>
<circle cx="93.3077" cy="90.5566" r="51.1243" fill="#2D1A79"/>
<path d="M116.825 90.5566L69.4495 67.1922L116.825 66.3577V90.5566Z" fill="white"/>
<path d="M116.825 92.6016L95.1766 87.4891L59.2249 96.7412L80.1967 108.088L77.8289 131.115L111.799 112.37L116.825 92.6016Z" fill="white"/>
</svg>
