<svg width="332" height="339" viewBox="0 0 332 339" fill="none" xmlns="http://www.w3.org/2000/svg">
<path d="M0.499105 69.5003C-4.69902 85.6519 31.9877 147.23 50.9809 176C85.8017 147.566 157.942 89.589 167.939 85.1473C180.434 79.5952 174.936 72.0241 173.936 62.9388C172.937 53.8535 161.441 45.7777 155.443 44.7682C149.445 43.7587 142.448 -18.324 115.957 5.39865C89.467 29.1213 76.9715 32.6544 50.9809 31.645C24.9903 30.6355 6.99676 49.3108 0.499105 69.5003Z" fill="#FF7A00"/>
<path d="M132.5 262.64L42 221.64C50.4 203.64 52 183.64 51 175.64L63.5 164.14C57.5 151.14 47 139.64 57.5 129.14C71.5 115.14 85 136.64 88.5 133.64C112.1 88.8397 149.333 82.6397 165.5 85.6397L180 148.14L161.5 148.14C161.333 164.806 161.2 199.44 158 204.64C154.8 209.84 139.667 210.14 132.5 209.64V262.64Z" fill="#D0AEAE"/>
<path d="M96 205L132.5 209.5V242L96 205Z" fill="#B58484"/>
<path d="M66 140C70 148.667 77.6 168.2 76 177C74 188 56 231 66 244C76 257 97 285 106 309C115 333 137 337 162 336C187 335 232 342 241 336C250 330 231 326 236 315C241 304 265 317 284 309C303 301 284 296 284 291C284 286 296 275 295 269" stroke="#FFDBDB"/>
<circle cx="67" cy="142" r="5" fill="#D9D9D9"/>
<rect x="261" y="167" width="71" height="104.91" rx="5" fill="#D9D9D9"/>
<circle cx="297.825" cy="250.451" r="15.1007" fill="black"/>
<rect x="268" y="174" width="57.7537" height="55.6343" rx="5" fill="white"/>
<circle cx="297.5" cy="250.5" r="6.5" fill="#3A4649"/>
<path d="M275.784 183.456C275.752 183.797 275.643 184.091 275.456 184.336C275.269 184.581 275.019 184.768 274.704 184.896C274.395 185.024 274.037 185.088 273.632 185.088C273.195 185.088 272.797 185.008 272.44 184.848C272.088 184.688 271.808 184.453 271.6 184.144C271.392 183.835 271.288 183.459 271.288 183.016C271.288 182.573 271.392 182.197 271.6 181.888C271.808 181.579 272.088 181.341 272.44 181.176C272.797 181.011 273.195 180.928 273.632 180.928C274.037 180.928 274.395 180.995 274.704 181.128C275.013 181.256 275.261 181.44 275.448 181.68C275.635 181.92 275.744 182.211 275.776 182.552H274.96C274.869 182.269 274.704 182.051 274.464 181.896C274.229 181.736 273.952 181.656 273.632 181.656C273.371 181.656 273.131 181.709 272.912 181.816C272.693 181.917 272.517 182.069 272.384 182.272C272.256 182.469 272.192 182.717 272.192 183.016C272.192 183.309 272.256 183.557 272.384 183.76C272.517 183.963 272.693 184.115 272.912 184.216C273.131 184.312 273.371 184.36 273.632 184.36C273.984 184.36 274.272 184.283 274.496 184.128C274.725 183.968 274.883 183.744 274.968 183.456H275.784ZM278.686 185.088C278.244 185.088 277.846 185.008 277.494 184.848C277.142 184.688 276.865 184.453 276.662 184.144C276.46 183.835 276.358 183.459 276.358 183.016C276.358 182.579 276.46 182.205 276.662 181.896C276.865 181.581 277.142 181.341 277.494 181.176C277.846 181.011 278.244 180.928 278.686 180.928C279.129 180.928 279.524 181.011 279.87 181.176C280.217 181.341 280.489 181.581 280.686 181.896C280.889 182.205 280.99 182.579 280.99 183.016C280.99 183.459 280.889 183.835 280.686 184.144C280.489 184.453 280.217 184.688 279.87 184.848C279.524 185.008 279.129 185.088 278.686 185.088ZM278.686 184.36C278.942 184.36 279.177 184.309 279.39 184.208C279.604 184.107 279.772 183.955 279.894 183.752C280.022 183.549 280.086 183.304 280.086 183.016C280.086 182.728 280.022 182.483 279.894 182.28C279.772 182.077 279.604 181.923 279.39 181.816C279.182 181.704 278.948 181.648 278.686 181.648C278.425 181.648 278.188 181.701 277.974 181.808C277.761 181.915 277.588 182.069 277.454 182.272C277.326 182.475 277.262 182.723 277.262 183.016C277.262 183.304 277.326 183.549 277.454 183.752C277.582 183.955 277.753 184.107 277.966 184.208C278.185 184.309 278.425 184.36 278.686 184.36ZM281.785 181.016H282.673V185H281.785V181.016ZM284.353 180.928C284.582 180.928 284.793 180.96 284.985 181.024C285.182 181.088 285.35 181.187 285.489 181.32C285.633 181.448 285.742 181.608 285.817 181.8C285.897 181.992 285.937 182.219 285.937 182.48V185H285.049V182.656C285.049 182.331 284.969 182.091 284.809 181.936C284.654 181.776 284.409 181.696 284.073 181.696C283.817 181.696 283.582 181.752 283.369 181.864C283.161 181.971 282.99 182.112 282.857 182.288C282.724 182.459 282.646 182.648 282.625 182.856L282.617 182.424C282.644 182.227 282.702 182.04 282.793 181.864C282.884 181.683 283.004 181.523 283.153 181.384C283.302 181.24 283.478 181.128 283.681 181.048C283.884 180.968 284.108 180.928 284.353 180.928ZM286.742 183.688H287.566C287.609 183.891 287.718 184.056 287.894 184.184C288.07 184.307 288.307 184.368 288.606 184.368C288.798 184.368 288.947 184.347 289.054 184.304C289.166 184.261 289.243 184.203 289.286 184.128C289.334 184.053 289.358 183.968 289.358 183.872C289.358 183.755 289.323 183.664 289.254 183.6C289.19 183.536 289.094 183.483 288.966 183.44C288.838 183.397 288.678 183.36 288.486 183.328C288.289 183.28 288.094 183.227 287.902 183.168C287.71 183.109 287.537 183.037 287.382 182.952C287.227 182.861 287.105 182.749 287.014 182.616C286.929 182.477 286.886 182.309 286.886 182.112C286.886 181.931 286.926 181.768 287.006 181.624C287.091 181.475 287.209 181.349 287.358 181.248C287.507 181.147 287.683 181.069 287.886 181.016C288.089 180.957 288.31 180.928 288.55 180.928C288.897 180.928 289.185 180.984 289.414 181.096C289.649 181.208 289.825 181.365 289.942 181.568C290.065 181.771 290.126 182.003 290.126 182.264H289.342C289.299 182.051 289.217 181.896 289.094 181.8C288.971 181.704 288.787 181.656 288.542 181.656C288.297 181.656 288.11 181.699 287.982 181.784C287.854 181.869 287.79 181.987 287.79 182.136C287.79 182.248 287.83 182.339 287.91 182.408C287.995 182.472 288.115 182.528 288.27 182.576C288.425 182.624 288.606 182.672 288.814 182.72C289.006 182.773 289.187 182.829 289.358 182.888C289.529 182.941 289.681 183.011 289.814 183.096C289.953 183.176 290.062 183.283 290.142 183.416C290.222 183.549 290.262 183.715 290.262 183.912C290.262 184.157 290.195 184.368 290.062 184.544C289.934 184.72 289.747 184.856 289.502 184.952C289.257 185.043 288.961 185.088 288.614 185.088C288.31 185.088 288.046 185.053 287.822 184.984C287.603 184.915 287.419 184.824 287.27 184.712C287.126 184.6 287.014 184.48 286.934 184.352C286.854 184.224 286.798 184.101 286.766 183.984C286.739 183.867 286.731 183.768 286.742 183.688ZM293.186 185.088C292.744 185.088 292.346 185.008 291.994 184.848C291.642 184.688 291.365 184.453 291.162 184.144C290.96 183.835 290.858 183.459 290.858 183.016C290.858 182.579 290.96 182.205 291.162 181.896C291.365 181.581 291.642 181.341 291.994 181.176C292.346 181.011 292.744 180.928 293.186 180.928C293.629 180.928 294.024 181.011 294.37 181.176C294.717 181.341 294.989 181.581 295.186 181.896C295.389 182.205 295.49 182.579 295.49 183.016C295.49 183.459 295.389 183.835 295.186 184.144C294.989 184.453 294.717 184.688 294.37 184.848C294.024 185.008 293.629 185.088 293.186 185.088ZM293.186 184.36C293.442 184.36 293.677 184.309 293.89 184.208C294.104 184.107 294.272 183.955 294.394 183.752C294.522 183.549 294.586 183.304 294.586 183.016C294.586 182.728 294.522 182.483 294.394 182.28C294.272 182.077 294.104 181.923 293.89 181.816C293.682 181.704 293.448 181.648 293.186 181.648C292.925 181.648 292.688 181.701 292.474 181.808C292.261 181.915 292.088 182.069 291.954 182.272C291.826 182.475 291.762 182.723 291.762 183.016C291.762 183.304 291.826 183.549 291.954 183.752C292.082 183.955 292.253 184.107 292.466 184.208C292.685 184.309 292.925 184.36 293.186 184.36ZM296.365 179.416H297.253V185H296.365V179.416ZM301.66 183.688H302.516C302.473 183.96 302.367 184.203 302.196 184.416C302.031 184.624 301.804 184.789 301.516 184.912C301.228 185.029 300.884 185.088 300.484 185.088C300.031 185.088 299.625 185.005 299.268 184.84C298.911 184.669 298.631 184.429 298.428 184.12C298.225 183.811 298.124 183.443 298.124 183.016C298.124 182.595 298.223 182.227 298.42 181.912C298.617 181.597 298.889 181.355 299.236 181.184C299.588 181.013 299.993 180.928 300.452 180.928C300.927 180.928 301.321 181.013 301.636 181.184C301.956 181.349 302.193 181.6 302.348 181.936C302.503 182.267 302.567 182.685 302.54 183.192H299.028C299.055 183.416 299.127 183.619 299.244 183.8C299.367 183.976 299.532 184.115 299.74 184.216C299.948 184.312 300.191 184.36 300.468 184.36C300.777 184.36 301.036 184.299 301.244 184.176C301.457 184.053 301.596 183.891 301.66 183.688ZM300.428 181.648C300.065 181.648 299.767 181.739 299.532 181.92C299.297 182.096 299.145 182.323 299.076 182.6H301.644C301.623 182.301 301.503 182.069 301.284 181.904C301.065 181.733 300.78 181.648 300.428 181.648ZM304.318 184.136V185H303.254V184.136H304.318ZM305.389 179.416H306.277V185H305.389V179.416ZM309.475 185.088C309.033 185.088 308.635 185.008 308.283 184.848C307.931 184.688 307.654 184.453 307.451 184.144C307.249 183.835 307.147 183.459 307.147 183.016C307.147 182.579 307.249 182.205 307.451 181.896C307.654 181.581 307.931 181.341 308.283 181.176C308.635 181.011 309.033 180.928 309.475 180.928C309.918 180.928 310.313 181.011 310.659 181.176C311.006 181.341 311.278 181.581 311.475 181.896C311.678 182.205 311.779 182.579 311.779 183.016C311.779 183.459 311.678 183.835 311.475 184.144C311.278 184.453 311.006 184.688 310.659 184.848C310.313 185.008 309.918 185.088 309.475 185.088ZM309.475 184.36C309.731 184.36 309.966 184.309 310.179 184.208C310.393 184.107 310.561 183.955 310.683 183.752C310.811 183.549 310.875 183.304 310.875 183.016C310.875 182.728 310.811 182.483 310.683 182.28C310.561 182.077 310.393 181.923 310.179 181.816C309.971 181.704 309.737 181.648 309.475 181.648C309.214 181.648 308.977 181.701 308.763 181.808C308.55 181.915 308.377 182.069 308.243 182.272C308.115 182.475 308.051 182.723 308.051 183.016C308.051 183.304 308.115 183.549 308.243 183.752C308.371 183.955 308.542 184.107 308.755 184.208C308.974 184.309 309.214 184.36 309.475 184.36ZM314.35 184.384C313.977 184.384 313.638 184.317 313.334 184.184C313.035 184.051 312.798 183.856 312.622 183.6C312.451 183.344 312.366 183.037 312.366 182.68C312.366 182.323 312.449 182.013 312.614 181.752C312.785 181.491 313.019 181.288 313.318 181.144C313.622 181 313.966 180.928 314.35 180.928C314.462 180.928 314.569 180.936 314.67 180.952C314.777 180.968 314.878 180.989 314.974 181.016L316.838 181.024V181.768C316.582 181.773 316.323 181.739 316.062 181.664C315.806 181.584 315.579 181.501 315.382 181.416L315.358 181.368C315.539 181.459 315.702 181.571 315.846 181.704C315.995 181.832 316.113 181.979 316.198 182.144C316.283 182.309 316.326 182.496 316.326 182.704C316.326 183.056 316.241 183.357 316.07 183.608C315.905 183.859 315.673 184.051 315.374 184.184C315.081 184.317 314.739 184.384 314.35 184.384ZM315.63 186.624V186.44C315.63 186.179 315.553 185.995 315.398 185.888C315.243 185.781 315.027 185.728 314.75 185.728H313.67C313.457 185.728 313.273 185.709 313.118 185.672C312.969 185.64 312.849 185.589 312.758 185.52C312.667 185.456 312.601 185.379 312.558 185.288C312.515 185.203 312.494 185.107 312.494 185C312.494 184.787 312.558 184.627 312.686 184.52C312.819 184.413 312.993 184.344 313.206 184.312C313.425 184.28 313.654 184.275 313.894 184.296L314.35 184.384C314.035 184.395 313.795 184.424 313.63 184.472C313.47 184.515 313.39 184.603 313.39 184.736C313.39 184.816 313.422 184.88 313.486 184.928C313.55 184.976 313.641 185 313.758 185H314.894C315.219 185 315.505 185.037 315.75 185.112C315.995 185.192 316.185 185.323 316.318 185.504C316.457 185.691 316.526 185.944 316.526 186.264V186.624H315.63ZM314.35 183.688C314.563 183.688 314.753 183.648 314.918 183.568C315.083 183.488 315.214 183.373 315.31 183.224C315.406 183.075 315.454 182.893 315.454 182.68C315.454 182.467 315.406 182.283 315.31 182.128C315.214 181.973 315.083 181.856 314.918 181.776C314.753 181.696 314.563 181.656 314.35 181.656C314.142 181.656 313.953 181.696 313.782 181.776C313.617 181.856 313.486 181.973 313.39 182.128C313.294 182.277 313.246 182.461 313.246 182.68C313.246 182.893 313.294 183.075 313.39 183.224C313.486 183.373 313.617 183.488 313.782 183.568C313.947 183.648 314.137 183.688 314.35 183.688ZM319.239 185.712L318.695 186.128C318.695 186.128 318.652 186.08 318.567 185.984C318.487 185.888 318.385 185.744 318.263 185.552C318.145 185.36 318.025 185.128 317.903 184.856C317.78 184.579 317.676 184.261 317.591 183.904C317.511 183.541 317.471 183.144 317.471 182.712C317.471 182.275 317.511 181.877 317.591 181.52C317.676 181.163 317.78 180.848 317.903 180.576C318.025 180.304 318.145 180.075 318.263 179.888C318.385 179.696 318.487 179.552 318.567 179.456C318.652 179.36 318.695 179.312 318.695 179.312L319.239 179.728C319.239 179.728 319.185 179.792 319.079 179.92C318.977 180.048 318.86 180.24 318.727 180.496C318.593 180.747 318.476 181.059 318.375 181.432C318.273 181.8 318.223 182.227 318.223 182.712C318.223 183.107 318.255 183.464 318.319 183.784C318.388 184.099 318.473 184.376 318.575 184.616C318.676 184.856 318.777 185.056 318.879 185.216C318.98 185.381 319.065 185.504 319.135 185.584C319.204 185.669 319.239 185.712 319.239 185.712ZM320.736 181.448H320.256L319.984 180.448V179.784H321.016V180.448L320.736 181.448ZM322.072 181.448H321.592L321.32 180.448V179.784H322.352V180.448L322.072 181.448ZM272.432 192.016H276.24V192.792H272.432V192.016ZM276.112 189.816H277.016V195H276.112V189.816ZM271.624 189.816H272.536V195H271.624V189.816ZM281.465 193.688H282.321C282.278 193.96 282.171 194.203 282.001 194.416C281.835 194.624 281.609 194.789 281.321 194.912C281.033 195.029 280.689 195.088 280.289 195.088C279.835 195.088 279.43 195.005 279.073 194.84C278.715 194.669 278.435 194.429 278.233 194.12C278.03 193.811 277.929 193.443 277.929 193.016C277.929 192.595 278.027 192.227 278.225 191.912C278.422 191.597 278.694 191.355 279.041 191.184C279.393 191.013 279.798 190.928 280.257 190.928C280.731 190.928 281.126 191.013 281.441 191.184C281.761 191.349 281.998 191.6 282.153 191.936C282.307 192.267 282.371 192.685 282.345 193.192H278.833C278.859 193.416 278.931 193.619 279.049 193.8C279.171 193.976 279.337 194.115 279.545 194.216C279.753 194.312 279.995 194.36 280.273 194.36C280.582 194.36 280.841 194.299 281.049 194.176C281.262 194.053 281.401 193.891 281.465 193.688ZM280.233 191.648C279.87 191.648 279.571 191.739 279.337 191.92C279.102 192.096 278.95 192.323 278.881 192.6H281.449C281.427 192.301 281.307 192.069 281.089 191.904C280.87 191.733 280.585 191.648 280.233 191.648ZM283.217 189.416H284.105V195H283.217V189.416ZM285.264 189.416H286.152V195H285.264V189.416ZM289.35 195.088C288.908 195.088 288.51 195.008 288.158 194.848C287.806 194.688 287.529 194.453 287.326 194.144C287.124 193.835 287.022 193.459 287.022 193.016C287.022 192.579 287.124 192.205 287.326 191.896C287.529 191.581 287.806 191.341 288.158 191.176C288.51 191.011 288.908 190.928 289.35 190.928C289.793 190.928 290.188 191.011 290.534 191.176C290.881 191.341 291.153 191.581 291.35 191.896C291.553 192.205 291.654 192.579 291.654 193.016C291.654 193.459 291.553 193.835 291.35 194.144C291.153 194.453 290.881 194.688 290.534 194.848C290.188 195.008 289.793 195.088 289.35 195.088ZM289.35 194.36C289.606 194.36 289.841 194.309 290.054 194.208C290.268 194.107 290.436 193.955 290.558 193.752C290.686 193.549 290.75 193.304 290.75 193.016C290.75 192.728 290.686 192.483 290.558 192.28C290.436 192.077 290.268 191.923 290.054 191.816C289.846 191.704 289.612 191.648 289.35 191.648C289.089 191.648 288.852 191.701 288.638 191.808C288.425 191.915 288.252 192.069 288.118 192.272C287.99 192.475 287.926 192.723 287.926 193.016C287.926 193.304 287.99 193.549 288.118 193.752C288.246 193.955 288.417 194.107 288.63 194.208C288.849 194.309 289.089 194.36 289.35 194.36ZM292.435 196.168L292.275 195.936C292.36 195.808 292.438 195.669 292.507 195.52C292.582 195.376 292.622 195.232 292.627 195.088L292.203 195V194.136H293.299V194.752C293.299 195.115 293.216 195.405 293.051 195.624C292.891 195.848 292.686 196.029 292.435 196.168ZM276.248 204.328L275.984 204.32L277.144 201.016H278.12L276.568 205H275.728L274.488 201.68H274.768L273.496 205H272.656L271.136 201.016H272.112L273.24 204.328H272.976L274.112 201.016H275.152L276.248 204.328ZM280.725 205.088C280.283 205.088 279.885 205.008 279.533 204.848C279.181 204.688 278.904 204.453 278.701 204.144C278.499 203.835 278.397 203.459 278.397 203.016C278.397 202.579 278.499 202.205 278.701 201.896C278.904 201.581 279.181 201.341 279.533 201.176C279.885 201.011 280.283 200.928 280.725 200.928C281.168 200.928 281.563 201.011 281.909 201.176C282.256 201.341 282.528 201.581 282.725 201.896C282.928 202.205 283.029 202.579 283.029 203.016C283.029 203.459 282.928 203.835 282.725 204.144C282.528 204.453 282.256 204.688 281.909 204.848C281.563 205.008 281.168 205.088 280.725 205.088ZM280.725 204.36C280.981 204.36 281.216 204.309 281.429 204.208C281.643 204.107 281.811 203.955 281.933 203.752C282.061 203.549 282.125 203.304 282.125 203.016C282.125 202.728 282.061 202.483 281.933 202.28C281.811 202.077 281.643 201.923 281.429 201.816C281.221 201.704 280.987 201.648 280.725 201.648C280.464 201.648 280.227 201.701 280.013 201.808C279.8 201.915 279.627 202.069 279.493 202.272C279.365 202.475 279.301 202.723 279.301 203.016C279.301 203.304 279.365 203.549 279.493 203.752C279.621 203.955 279.792 204.107 280.005 204.208C280.224 204.309 280.464 204.36 280.725 204.36ZM283.824 201.016H284.712V205H283.824V201.016ZM286.152 201.776C285.864 201.776 285.616 201.837 285.408 201.96C285.205 202.083 285.043 202.232 284.92 202.408C284.797 202.584 284.712 202.755 284.664 202.92L284.656 202.472C284.661 202.413 284.68 202.325 284.712 202.208C284.744 202.085 284.792 201.952 284.856 201.808C284.925 201.664 285.016 201.525 285.128 201.392C285.245 201.253 285.387 201.141 285.552 201.056C285.723 200.971 285.923 200.928 286.152 200.928V201.776ZM286.904 199.416H287.792V205H286.904V199.416ZM290.647 205.088C290.279 205.088 289.943 205 289.639 204.824C289.34 204.648 289.103 204.405 288.927 204.096C288.751 203.781 288.663 203.421 288.663 203.016C288.663 202.6 288.748 202.237 288.919 201.928C289.095 201.613 289.33 201.368 289.623 201.192C289.922 201.016 290.263 200.928 290.647 200.928C290.983 200.928 291.266 200.984 291.495 201.096C291.724 201.203 291.906 201.352 292.039 201.544C292.172 201.731 292.268 201.949 292.327 202.2C292.391 202.451 292.423 202.723 292.423 203.016C292.423 203.235 292.391 203.467 292.327 203.712C292.263 203.952 292.162 204.176 292.023 204.384C291.89 204.592 291.708 204.763 291.479 204.896C291.255 205.024 290.978 205.088 290.647 205.088ZM290.919 204.352C291.218 204.352 291.471 204.296 291.679 204.184C291.892 204.067 292.052 203.907 292.159 203.704C292.271 203.501 292.327 203.272 292.327 203.016C292.327 202.733 292.271 202.493 292.159 202.296C292.047 202.093 291.887 201.936 291.679 201.824C291.471 201.712 291.218 201.656 290.919 201.656C290.492 201.656 290.162 201.784 289.927 202.04C289.692 202.291 289.575 202.616 289.575 203.016C289.575 203.277 289.631 203.509 289.743 203.712C289.86 203.915 290.02 204.072 290.223 204.184C290.426 204.296 290.658 204.352 290.919 204.352ZM292.327 199.416H293.223V205H292.391C292.38 204.877 292.367 204.725 292.351 204.544C292.335 204.363 292.327 204.2 292.327 204.056V199.416ZM294.571 199.584H295.467V203.384H294.571V199.584ZM295.555 204.136V205H294.483V204.136H295.555ZM297.26 201.448H296.78L296.508 200.448V199.784H297.54V200.448L297.26 201.448ZM298.596 201.448H298.116L297.844 200.448V199.784H298.876V200.448L298.596 201.448ZM299.611 205.712C299.611 205.712 299.646 205.672 299.715 205.592C299.785 205.512 299.87 205.389 299.971 205.224C300.073 205.059 300.171 204.856 300.267 204.616C300.369 204.376 300.454 204.099 300.523 203.784C300.593 203.464 300.627 203.107 300.627 202.712C300.627 202.227 300.574 201.8 300.467 201.432C300.366 201.059 300.249 200.747 300.115 200.496C299.987 200.24 299.87 200.048 299.763 199.92C299.662 199.792 299.611 199.728 299.611 199.728L300.155 199.312C300.155 199.312 300.195 199.36 300.275 199.456C300.361 199.552 300.465 199.696 300.587 199.888C300.71 200.075 300.83 200.304 300.947 200.576C301.07 200.848 301.171 201.163 301.251 201.52C301.337 201.877 301.379 202.275 301.379 202.712C301.379 203.144 301.337 203.541 301.251 203.904C301.171 204.261 301.07 204.579 300.947 204.856C300.825 205.128 300.702 205.36 300.579 205.552C300.462 205.744 300.361 205.888 300.275 205.984C300.195 206.08 300.155 206.128 300.155 206.128L299.611 205.712ZM303.365 201.128V201.992H302.301V201.128H303.365ZM302.525 206.104L302.365 205.872C302.45 205.744 302.528 205.605 302.597 205.456C302.672 205.312 302.712 205.168 302.717 205.024L302.293 204.936V204.072H303.389V204.688C303.389 205.051 303.306 205.341 303.141 205.56C302.981 205.784 302.776 205.965 302.525 206.104Z" fill="black"/>
</svg>
