<svg width="495" height="465" viewBox="0 0 495 465" fill="none" xmlns="http://www.w3.org/2000/svg">
<path d="M41.7379 285.891C61.0382 340 -19.1846 371.943 4.37215 465H495V0L232.628 2.11203e-05L62.8576 0C45.0312 -5.98337e-06 62.8576 90.7725 22.2427 140.803C-10.2793 180.864 26.2527 242.478 41.7379 285.891Z" fill="#2D1A79"/>
<path d="M80.4991 139.5C75.301 155.652 111.988 217.23 130.981 246C165.802 217.566 237.942 159.589 247.939 155.147C260.434 149.595 254.936 142.024 253.936 132.939C252.937 123.854 241.441 115.778 235.443 114.768C229.445 113.759 222.448 51.676 195.957 75.3987C169.467 99.1213 156.971 102.654 130.981 101.645C104.99 100.635 86.9968 119.311 80.4991 139.5Z" fill="#FF7A00"/>
<path d="M212.5 332.64L122 291.64C130.4 273.64 132 253.64 131 245.64L143.5 234.14C137.5 221.14 127 209.64 137.5 199.14C151.5 185.14 165 206.64 168.5 203.64C192.1 158.84 229.333 152.64 245.5 155.64L260 218.14L241.5 218.14C241.333 234.806 241.2 269.44 238 274.64C234.8 279.84 219.667 280.14 212.5 279.64V332.64Z" fill="#D0AEAE"/>
<path d="M176 275L212.5 279.5V312L176 275Z" fill="#B58484"/>
<rect x="341" y="237" width="71" height="104.91" rx="5" fill="#D9D9D9"/>
<circle cx="377.825" cy="320.451" r="15.1007" fill="black"/>
<rect x="348" y="244" width="57.7537" height="55.6343" rx="5" fill="white"/>
<path d="M146 210C150 218.667 157.6 238.2 156 247C154 258 136 301 146 314C156 327 177 355 186 379C195 403 217 407 242 406C267 405 312 412 321 406C330 400 311 396 316 385C321 374 345 387 364 379C383 371 364 366 364 361C364 356 376 345 375 339" stroke="#FFDBDB"/>
<circle cx="145" cy="210" r="3" fill="#D9D9D9"/>
<circle cx="377.5" cy="320.5" r="6.5" fill="#3A4649"/>
<path d="M353.99 251.035C353.97 251.248 353.902 251.432 353.785 251.585C353.668 251.738 353.512 251.855 353.315 251.935C353.122 252.015 352.898 252.055 352.645 252.055C352.372 252.055 352.123 252.005 351.9 251.905C351.68 251.805 351.505 251.658 351.375 251.465C351.245 251.272 351.18 251.037 351.18 250.76C351.18 250.483 351.245 250.248 351.375 250.055C351.505 249.862 351.68 249.713 351.9 249.61C352.123 249.507 352.372 249.455 352.645 249.455C352.898 249.455 353.122 249.497 353.315 249.58C353.508 249.66 353.663 249.775 353.78 249.925C353.897 250.075 353.965 250.257 353.985 250.47H353.475C353.418 250.293 353.315 250.157 353.165 250.06C353.018 249.96 352.845 249.91 352.645 249.91C352.482 249.91 352.332 249.943 352.195 250.01C352.058 250.073 351.948 250.168 351.865 250.295C351.785 250.418 351.745 250.573 351.745 250.76C351.745 250.943 351.785 251.098 351.865 251.225C351.948 251.352 352.058 251.447 352.195 251.51C352.332 251.57 352.482 251.6 352.645 251.6C352.865 251.6 353.045 251.552 353.185 251.455C353.328 251.355 353.427 251.215 353.48 251.035H353.99ZM355.804 252.055C355.527 252.055 355.279 252.005 355.059 251.905C354.839 251.805 354.666 251.658 354.539 251.465C354.412 251.272 354.349 251.037 354.349 250.76C354.349 250.487 354.412 250.253 354.539 250.06C354.666 249.863 354.839 249.713 355.059 249.61C355.279 249.507 355.527 249.455 355.804 249.455C356.081 249.455 356.327 249.507 356.544 249.61C356.761 249.713 356.931 249.863 357.054 250.06C357.181 250.253 357.244 250.487 357.244 250.76C357.244 251.037 357.181 251.272 357.054 251.465C356.931 251.658 356.761 251.805 356.544 251.905C356.327 252.005 356.081 252.055 355.804 252.055ZM355.804 251.6C355.964 251.6 356.111 251.568 356.244 251.505C356.377 251.442 356.482 251.347 356.559 251.22C356.639 251.093 356.679 250.94 356.679 250.76C356.679 250.58 356.639 250.427 356.559 250.3C356.482 250.173 356.377 250.077 356.244 250.01C356.114 249.94 355.967 249.905 355.804 249.905C355.641 249.905 355.492 249.938 355.359 250.005C355.226 250.072 355.117 250.168 355.034 250.295C354.954 250.422 354.914 250.577 354.914 250.76C354.914 250.94 354.954 251.093 355.034 251.22C355.114 251.347 355.221 251.442 355.354 251.505C355.491 251.568 355.641 251.6 355.804 251.6ZM357.741 249.51H358.296V252H357.741V249.51ZM359.346 249.455C359.489 249.455 359.621 249.475 359.741 249.515C359.864 249.555 359.969 249.617 360.056 249.7C360.146 249.78 360.214 249.88 360.261 250C360.311 250.12 360.336 250.262 360.336 250.425V252H359.781V250.535C359.781 250.332 359.731 250.182 359.631 250.085C359.534 249.985 359.381 249.935 359.171 249.935C359.011 249.935 358.864 249.97 358.731 250.04C358.601 250.107 358.494 250.195 358.411 250.305C358.327 250.412 358.279 250.53 358.266 250.66L358.261 250.39C358.277 250.267 358.314 250.15 358.371 250.04C358.427 249.927 358.502 249.827 358.596 249.74C358.689 249.65 358.799 249.58 358.926 249.53C359.052 249.48 359.192 249.455 359.346 249.455ZM360.839 251.18H361.354C361.38 251.307 361.449 251.41 361.559 251.49C361.669 251.567 361.817 251.605 362.004 251.605C362.124 251.605 362.217 251.592 362.284 251.565C362.354 251.538 362.402 251.502 362.429 251.455C362.459 251.408 362.474 251.355 362.474 251.295C362.474 251.222 362.452 251.165 362.409 251.125C362.369 251.085 362.309 251.052 362.229 251.025C362.149 250.998 362.049 250.975 361.929 250.955C361.805 250.925 361.684 250.892 361.564 250.855C361.444 250.818 361.335 250.773 361.239 250.72C361.142 250.663 361.065 250.593 361.009 250.51C360.955 250.423 360.929 250.318 360.929 250.195C360.929 250.082 360.954 249.98 361.004 249.89C361.057 249.797 361.13 249.718 361.224 249.655C361.317 249.592 361.427 249.543 361.554 249.51C361.68 249.473 361.819 249.455 361.969 249.455C362.185 249.455 362.365 249.49 362.509 249.56C362.655 249.63 362.765 249.728 362.839 249.855C362.915 249.982 362.954 250.127 362.954 250.29H362.464C362.437 250.157 362.385 250.06 362.309 250C362.232 249.94 362.117 249.91 361.964 249.91C361.81 249.91 361.694 249.937 361.614 249.99C361.534 250.043 361.494 250.117 361.494 250.21C361.494 250.28 361.519 250.337 361.569 250.38C361.622 250.42 361.697 250.455 361.794 250.485C361.89 250.515 362.004 250.545 362.134 250.575C362.254 250.608 362.367 250.643 362.474 250.68C362.58 250.713 362.675 250.757 362.759 250.81C362.845 250.86 362.914 250.927 362.964 251.01C363.014 251.093 363.039 251.197 363.039 251.32C363.039 251.473 362.997 251.605 362.914 251.715C362.834 251.825 362.717 251.91 362.564 251.97C362.41 252.027 362.225 252.055 362.009 252.055C361.819 252.055 361.654 252.033 361.514 251.99C361.377 251.947 361.262 251.89 361.169 251.82C361.079 251.75 361.009 251.675 360.959 251.595C360.909 251.515 360.874 251.438 360.854 251.365C360.837 251.292 360.832 251.23 360.839 251.18ZM364.866 252.055C364.59 252.055 364.341 252.005 364.121 251.905C363.901 251.805 363.728 251.658 363.601 251.465C363.475 251.272 363.411 251.037 363.411 250.76C363.411 250.487 363.475 250.253 363.601 250.06C363.728 249.863 363.901 249.713 364.121 249.61C364.341 249.507 364.59 249.455 364.866 249.455C365.143 249.455 365.39 249.507 365.606 249.61C365.823 249.713 365.993 249.863 366.116 250.06C366.243 250.253 366.306 250.487 366.306 250.76C366.306 251.037 366.243 251.272 366.116 251.465C365.993 251.658 365.823 251.805 365.606 251.905C365.39 252.005 365.143 252.055 364.866 252.055ZM364.866 251.6C365.026 251.6 365.173 251.568 365.306 251.505C365.44 251.442 365.545 251.347 365.621 251.22C365.701 251.093 365.741 250.94 365.741 250.76C365.741 250.58 365.701 250.427 365.621 250.3C365.545 250.173 365.44 250.077 365.306 250.01C365.176 249.94 365.03 249.905 364.866 249.905C364.703 249.905 364.555 249.938 364.421 250.005C364.288 250.072 364.18 250.168 364.096 250.295C364.016 250.422 363.976 250.577 363.976 250.76C363.976 250.94 364.016 251.093 364.096 251.22C364.176 251.347 364.283 251.442 364.416 251.505C364.553 251.568 364.703 251.6 364.866 251.6ZM366.853 248.51H367.408V252H366.853V248.51ZM370.162 251.18H370.697C370.671 251.35 370.604 251.502 370.497 251.635C370.394 251.765 370.252 251.868 370.072 251.945C369.892 252.018 369.677 252.055 369.427 252.055C369.144 252.055 368.891 252.003 368.667 251.9C368.444 251.793 368.269 251.643 368.142 251.45C368.016 251.257 367.952 251.027 367.952 250.76C367.952 250.497 368.014 250.267 368.137 250.07C368.261 249.873 368.431 249.722 368.647 249.615C368.867 249.508 369.121 249.455 369.407 249.455C369.704 249.455 369.951 249.508 370.147 249.615C370.347 249.718 370.496 249.875 370.592 250.085C370.689 250.292 370.729 250.553 370.712 250.87H368.517C368.534 251.01 368.579 251.137 368.652 251.25C368.729 251.36 368.832 251.447 368.962 251.51C369.092 251.57 369.244 251.6 369.417 251.6C369.611 251.6 369.772 251.562 369.902 251.485C370.036 251.408 370.122 251.307 370.162 251.18ZM369.392 249.905C369.166 249.905 368.979 249.962 368.832 250.075C368.686 250.185 368.591 250.327 368.547 250.5H370.152C370.139 250.313 370.064 250.168 369.927 250.065C369.791 249.958 369.612 249.905 369.392 249.905ZM371.824 251.46V252H371.159V251.46H371.824ZM372.493 248.51H373.048V252H372.493V248.51ZM375.047 252.055C374.77 252.055 374.522 252.005 374.302 251.905C374.082 251.805 373.909 251.658 373.782 251.465C373.655 251.272 373.592 251.037 373.592 250.76C373.592 250.487 373.655 250.253 373.782 250.06C373.909 249.863 374.082 249.713 374.302 249.61C374.522 249.507 374.77 249.455 375.047 249.455C375.324 249.455 375.57 249.507 375.787 249.61C376.004 249.713 376.174 249.863 376.297 250.06C376.424 250.253 376.487 250.487 376.487 250.76C376.487 251.037 376.424 251.272 376.297 251.465C376.174 251.658 376.004 251.805 375.787 251.905C375.57 252.005 375.324 252.055 375.047 252.055ZM375.047 251.6C375.207 251.6 375.354 251.568 375.487 251.505C375.62 251.442 375.725 251.347 375.802 251.22C375.882 251.093 375.922 250.94 375.922 250.76C375.922 250.58 375.882 250.427 375.802 250.3C375.725 250.173 375.62 250.077 375.487 250.01C375.357 249.94 375.21 249.905 375.047 249.905C374.884 249.905 374.735 249.938 374.602 250.005C374.469 250.072 374.36 250.168 374.277 250.295C374.197 250.422 374.157 250.577 374.157 250.76C374.157 250.94 374.197 251.093 374.277 251.22C374.357 251.347 374.464 251.442 374.597 251.505C374.734 251.568 374.884 251.6 375.047 251.6ZM378.094 251.615C377.86 251.615 377.649 251.573 377.459 251.49C377.272 251.407 377.124 251.285 377.014 251.125C376.907 250.965 376.854 250.773 376.854 250.55C376.854 250.327 376.905 250.133 377.009 249.97C377.115 249.807 377.262 249.68 377.449 249.59C377.639 249.5 377.854 249.455 378.094 249.455C378.164 249.455 378.23 249.46 378.294 249.47C378.36 249.48 378.424 249.493 378.484 249.51L379.649 249.515V249.98C379.489 249.983 379.327 249.962 379.164 249.915C379.004 249.865 378.862 249.813 378.739 249.76L378.724 249.73C378.837 249.787 378.939 249.857 379.029 249.94C379.122 250.02 379.195 250.112 379.249 250.215C379.302 250.318 379.329 250.435 379.329 250.565C379.329 250.785 379.275 250.973 379.169 251.13C379.065 251.287 378.92 251.407 378.734 251.49C378.55 251.573 378.337 251.615 378.094 251.615ZM378.894 253.015V252.9C378.894 252.737 378.845 252.622 378.749 252.555C378.652 252.488 378.517 252.455 378.344 252.455H377.669C377.535 252.455 377.42 252.443 377.324 252.42C377.23 252.4 377.155 252.368 377.099 252.325C377.042 252.285 377 252.237 376.974 252.18C376.947 252.127 376.934 252.067 376.934 252C376.934 251.867 376.974 251.767 377.054 251.7C377.137 251.633 377.245 251.59 377.379 251.57C377.515 251.55 377.659 251.547 377.809 251.56L378.094 251.615C377.897 251.622 377.747 251.64 377.644 251.67C377.544 251.697 377.494 251.752 377.494 251.835C377.494 251.885 377.514 251.925 377.554 251.955C377.594 251.985 377.65 252 377.724 252H378.434C378.637 252 378.815 252.023 378.969 252.07C379.122 252.12 379.24 252.202 379.324 252.315C379.41 252.432 379.454 252.59 379.454 252.79V253.015H378.894ZM378.094 251.18C378.227 251.18 378.345 251.155 378.449 251.105C378.552 251.055 378.634 250.983 378.694 250.89C378.754 250.797 378.784 250.683 378.784 250.55C378.784 250.417 378.754 250.302 378.694 250.205C378.634 250.108 378.552 250.035 378.449 249.985C378.345 249.935 378.227 249.91 378.094 249.91C377.964 249.91 377.845 249.935 377.739 249.985C377.635 250.035 377.554 250.108 377.494 250.205C377.434 250.298 377.404 250.413 377.404 250.55C377.404 250.683 377.434 250.797 377.494 250.89C377.554 250.983 377.635 251.055 377.739 251.105C377.842 251.155 377.96 251.18 378.094 251.18ZM381.149 252.445L380.809 252.705C380.809 252.705 380.783 252.675 380.729 252.615C380.679 252.555 380.616 252.465 380.539 252.345C380.466 252.225 380.391 252.08 380.314 251.91C380.238 251.737 380.173 251.538 380.119 251.315C380.069 251.088 380.044 250.84 380.044 250.57C380.044 250.297 380.069 250.048 380.119 249.825C380.173 249.602 380.238 249.405 380.314 249.235C380.391 249.065 380.466 248.922 380.539 248.805C380.616 248.685 380.679 248.595 380.729 248.535C380.783 248.475 380.809 248.445 380.809 248.445L381.149 248.705C381.149 248.705 381.116 248.745 381.049 248.825C380.986 248.905 380.913 249.025 380.829 249.185C380.746 249.342 380.673 249.537 380.609 249.77C380.546 250 380.514 250.267 380.514 250.57C380.514 250.817 380.534 251.04 380.574 251.24C380.618 251.437 380.671 251.61 380.734 251.76C380.798 251.91 380.861 252.035 380.924 252.135C380.988 252.238 381.041 252.315 381.084 252.365C381.128 252.418 381.149 252.445 381.149 252.445ZM382.085 249.78H381.785L381.615 249.155V248.74H382.26V249.155L382.085 249.78ZM382.92 249.78H382.62L382.45 249.155V248.74H383.095V249.155L382.92 249.78ZM384.19 250.135H386.57V250.62H384.19V250.135ZM386.49 248.76H387.055V252H386.49V248.76ZM383.685 248.76H384.255V252H383.685V248.76ZM389.835 251.18H390.37C390.344 251.35 390.277 251.502 390.17 251.635C390.067 251.765 389.925 251.868 389.745 251.945C389.565 252.018 389.35 252.055 389.1 252.055C388.817 252.055 388.564 252.003 388.34 251.9C388.117 251.793 387.942 251.643 387.815 251.45C387.689 251.257 387.625 251.027 387.625 250.76C387.625 250.497 387.687 250.267 387.81 250.07C387.934 249.873 388.104 249.722 388.32 249.615C388.54 249.508 388.794 249.455 389.08 249.455C389.377 249.455 389.624 249.508 389.82 249.615C390.02 249.718 390.169 249.875 390.265 250.085C390.362 250.292 390.402 250.553 390.385 250.87H388.19C388.207 251.01 388.252 251.137 388.325 251.25C388.402 251.36 388.505 251.447 388.635 251.51C388.765 251.57 388.917 251.6 389.09 251.6C389.284 251.6 389.445 251.562 389.575 251.485C389.709 251.408 389.795 251.307 389.835 251.18ZM389.065 249.905C388.839 249.905 388.652 249.962 388.505 250.075C388.359 250.185 388.264 250.327 388.22 250.5H389.825C389.812 250.313 389.737 250.168 389.6 250.065C389.464 249.958 389.285 249.905 389.065 249.905ZM390.93 248.51H391.485V252H390.93V248.51ZM392.21 248.51H392.765V252H392.21V248.51ZM394.764 252.055C394.487 252.055 394.239 252.005 394.019 251.905C393.799 251.805 393.626 251.658 393.499 251.465C393.372 251.272 393.309 251.037 393.309 250.76C393.309 250.487 393.372 250.253 393.499 250.06C393.626 249.863 393.799 249.713 394.019 249.61C394.239 249.507 394.487 249.455 394.764 249.455C395.041 249.455 395.287 249.507 395.504 249.61C395.721 249.713 395.891 249.863 396.014 250.06C396.141 250.253 396.204 250.487 396.204 250.76C396.204 251.037 396.141 251.272 396.014 251.465C395.891 251.658 395.721 251.805 395.504 251.905C395.287 252.005 395.041 252.055 394.764 252.055ZM394.764 251.6C394.924 251.6 395.071 251.568 395.204 251.505C395.337 251.442 395.442 251.347 395.519 251.22C395.599 251.093 395.639 250.94 395.639 250.76C395.639 250.58 395.599 250.427 395.519 250.3C395.442 250.173 395.337 250.077 395.204 250.01C395.074 249.94 394.927 249.905 394.764 249.905C394.601 249.905 394.452 249.938 394.319 250.005C394.186 250.072 394.077 250.168 393.994 250.295C393.914 250.422 393.874 250.577 393.874 250.76C393.874 250.94 393.914 251.093 393.994 251.22C394.074 251.347 394.181 251.442 394.314 251.505C394.451 251.568 394.601 251.6 394.764 251.6ZM396.692 252.73L396.592 252.585C396.645 252.505 396.693 252.418 396.737 252.325C396.783 252.235 396.808 252.145 396.812 252.055L396.547 252V251.46H397.232V251.845C397.232 252.072 397.18 252.253 397.077 252.39C396.977 252.53 396.848 252.643 396.692 252.73ZM354.28 257.58L354.115 257.575L354.84 255.51H355.45L354.48 258H353.955L353.18 255.925H353.355L352.56 258H352.035L351.085 255.51H351.695L352.4 257.58H352.235L352.945 255.51H353.595L354.28 257.58ZM357.078 258.055C356.802 258.055 356.553 258.005 356.333 257.905C356.113 257.805 355.94 257.658 355.813 257.465C355.687 257.272 355.623 257.037 355.623 256.76C355.623 256.487 355.687 256.253 355.813 256.06C355.94 255.863 356.113 255.713 356.333 255.61C356.553 255.507 356.802 255.455 357.078 255.455C357.355 255.455 357.602 255.507 357.818 255.61C358.035 255.713 358.205 255.863 358.328 256.06C358.455 256.253 358.518 256.487 358.518 256.76C358.518 257.037 358.455 257.272 358.328 257.465C358.205 257.658 358.035 257.805 357.818 257.905C357.602 258.005 357.355 258.055 357.078 258.055ZM357.078 257.6C357.238 257.6 357.385 257.568 357.518 257.505C357.652 257.442 357.757 257.347 357.833 257.22C357.913 257.093 357.953 256.94 357.953 256.76C357.953 256.58 357.913 256.427 357.833 256.3C357.757 256.173 357.652 256.077 357.518 256.01C357.388 255.94 357.242 255.905 357.078 255.905C356.915 255.905 356.767 255.938 356.633 256.005C356.5 256.072 356.392 256.168 356.308 256.295C356.228 256.422 356.188 256.577 356.188 256.76C356.188 256.94 356.228 257.093 356.308 257.22C356.388 257.347 356.495 257.442 356.628 257.505C356.765 257.568 356.915 257.6 357.078 257.6ZM359.015 255.51H359.57V258H359.015V255.51ZM360.47 255.985C360.29 255.985 360.135 256.023 360.005 256.1C359.878 256.177 359.777 256.27 359.7 256.38C359.623 256.49 359.57 256.597 359.54 256.7L359.535 256.42C359.538 256.383 359.55 256.328 359.57 256.255C359.59 256.178 359.62 256.095 359.66 256.005C359.703 255.915 359.76 255.828 359.83 255.745C359.903 255.658 359.992 255.588 360.095 255.535C360.202 255.482 360.327 255.455 360.47 255.455V255.985ZM360.94 254.51H361.495V258H360.94V254.51ZM363.279 258.055C363.049 258.055 362.839 258 362.649 257.89C362.463 257.78 362.314 257.628 362.204 257.435C362.094 257.238 362.039 257.013 362.039 256.76C362.039 256.5 362.093 256.273 362.199 256.08C362.309 255.883 362.456 255.73 362.639 255.62C362.826 255.51 363.039 255.455 363.279 255.455C363.489 255.455 363.666 255.49 363.809 255.56C363.953 255.627 364.066 255.72 364.149 255.84C364.233 255.957 364.293 256.093 364.329 256.25C364.369 256.407 364.389 256.577 364.389 256.76C364.389 256.897 364.369 257.042 364.329 257.195C364.289 257.345 364.226 257.485 364.139 257.615C364.056 257.745 363.943 257.852 363.799 257.935C363.659 258.015 363.486 258.055 363.279 258.055ZM363.449 257.595C363.636 257.595 363.794 257.56 363.924 257.49C364.058 257.417 364.158 257.317 364.224 257.19C364.294 257.063 364.329 256.92 364.329 256.76C364.329 256.583 364.294 256.433 364.224 256.31C364.154 256.183 364.054 256.085 363.924 256.015C363.794 255.945 363.636 255.91 363.449 255.91C363.183 255.91 362.976 255.99 362.829 256.15C362.683 256.307 362.609 256.51 362.609 256.76C362.609 256.923 362.644 257.068 362.714 257.195C362.788 257.322 362.888 257.42 363.014 257.49C363.141 257.56 363.286 257.595 363.449 257.595ZM364.329 254.51H364.889V258H364.369C364.363 257.923 364.354 257.828 364.344 257.715C364.334 257.602 364.329 257.5 364.329 257.41V254.51ZM365.732 254.615H366.292V256.99H365.732V254.615ZM366.347 257.46V258H365.677V257.46H366.347ZM367.412 255.78H367.112L366.942 255.155V254.74H367.587V255.155L367.412 255.78ZM368.247 255.78H367.947L367.777 255.155V254.74H368.422V255.155L368.247 255.78ZM368.882 258.445C368.882 258.445 368.904 258.42 368.947 258.37C368.99 258.32 369.044 258.243 369.107 258.14C369.17 258.037 369.232 257.91 369.292 257.76C369.355 257.61 369.409 257.437 369.452 257.24C369.495 257.04 369.517 256.817 369.517 256.57C369.517 256.267 369.484 256 369.417 255.77C369.354 255.537 369.28 255.342 369.197 255.185C369.117 255.025 369.044 254.905 368.977 254.825C368.914 254.745 368.882 254.705 368.882 254.705L369.222 254.445C369.222 254.445 369.247 254.475 369.297 254.535C369.35 254.595 369.415 254.685 369.492 254.805C369.569 254.922 369.644 255.065 369.717 255.235C369.794 255.405 369.857 255.602 369.907 255.825C369.96 256.048 369.987 256.297 369.987 256.57C369.987 256.84 369.96 257.088 369.907 257.315C369.857 257.538 369.794 257.737 369.717 257.91C369.64 258.08 369.564 258.225 369.487 258.345C369.414 258.465 369.35 258.555 369.297 258.615C369.247 258.675 369.222 258.705 369.222 258.705L368.882 258.445ZM371.228 255.58V256.12H370.563V255.58H371.228ZM370.703 258.69L370.603 258.545C370.656 258.465 370.705 258.378 370.748 258.285C370.795 258.195 370.82 258.105 370.823 258.015L370.558 257.96V257.42H371.243V257.805C371.243 258.032 371.191 258.213 371.088 258.35C370.988 258.49 370.86 258.603 370.703 258.69ZM366.715 261.51H367.27V264H366.715V261.51ZM368.32 261.455C368.464 261.455 368.595 261.475 368.715 261.515C368.839 261.555 368.944 261.617 369.03 261.7C369.12 261.78 369.189 261.88 369.235 262C369.285 262.12 369.31 262.262 369.31 262.425V264H368.755V262.535C368.755 262.332 368.705 262.182 368.605 262.085C368.509 261.985 368.355 261.935 368.145 261.935C367.985 261.935 367.839 261.97 367.705 262.04C367.575 262.107 367.469 262.195 367.385 262.305C367.302 262.412 367.254 262.53 367.24 262.66L367.235 262.39C367.252 262.267 367.289 262.15 367.345 262.04C367.402 261.927 367.477 261.827 367.57 261.74C367.664 261.65 367.774 261.58 367.9 261.53C368.027 261.48 368.167 261.455 368.32 261.455ZM371.248 264.055C370.972 264.055 370.723 264.005 370.503 263.905C370.283 263.805 370.11 263.658 369.983 263.465C369.857 263.272 369.793 263.037 369.793 262.76C369.793 262.487 369.857 262.253 369.983 262.06C370.11 261.863 370.283 261.713 370.503 261.61C370.723 261.507 370.972 261.455 371.248 261.455C371.525 261.455 371.772 261.507 371.988 261.61C372.205 261.713 372.375 261.863 372.498 262.06C372.625 262.253 372.688 262.487 372.688 262.76C372.688 263.037 372.625 263.272 372.498 263.465C372.375 263.658 372.205 263.805 371.988 263.905C371.772 264.005 371.525 264.055 371.248 264.055ZM371.248 263.6C371.408 263.6 371.555 263.568 371.688 263.505C371.822 263.442 371.927 263.347 372.003 263.22C372.083 263.093 372.123 262.94 372.123 262.76C372.123 262.58 372.083 262.427 372.003 262.3C371.927 262.173 371.822 262.077 371.688 262.01C371.558 261.94 371.412 261.905 371.248 261.905C371.085 261.905 370.937 261.938 370.803 262.005C370.67 262.072 370.562 262.168 370.478 262.295C370.398 262.422 370.358 262.577 370.358 262.76C370.358 262.94 370.398 263.093 370.478 263.22C370.558 263.347 370.665 263.442 370.798 263.505C370.935 263.568 371.085 263.6 371.248 263.6ZM373.185 261.51H373.74V264H373.185V261.51ZM374.79 261.455C374.933 261.455 375.065 261.475 375.185 261.515C375.308 261.555 375.413 261.617 375.5 261.7C375.59 261.78 375.658 261.88 375.705 262C375.755 262.12 375.78 262.262 375.78 262.425V264H375.225V262.535C375.225 262.332 375.175 262.182 375.075 262.085C374.978 261.985 374.825 261.935 374.615 261.935C374.455 261.935 374.308 261.97 374.175 262.04C374.045 262.107 373.938 262.195 373.855 262.305C373.772 262.412 373.723 262.53 373.71 262.66L373.705 262.39C373.722 262.267 373.758 262.15 373.815 262.04C373.872 261.927 373.947 261.827 374.04 261.74C374.133 261.65 374.243 261.58 374.37 261.53C374.497 261.48 374.637 261.455 374.79 261.455ZM376.775 261.455C376.922 261.455 377.055 261.475 377.175 261.515C377.295 261.555 377.398 261.617 377.485 261.7C377.575 261.78 377.645 261.88 377.695 262C377.745 262.12 377.77 262.262 377.77 262.425V264H377.21V262.535C377.21 262.332 377.16 262.182 377.06 262.085C376.963 261.985 376.81 261.935 376.6 261.935C376.44 261.935 376.293 261.97 376.16 262.04C376.03 262.107 375.923 262.195 375.84 262.305C375.76 262.412 375.713 262.53 375.7 262.66L375.69 262.38C375.707 262.26 375.745 262.145 375.805 262.035C375.865 261.922 375.942 261.822 376.035 261.735C376.128 261.648 376.237 261.58 376.36 261.53C376.487 261.48 376.625 261.455 376.775 261.455ZM379.473 261.9H381.688V262.35H379.473V261.9ZM379.473 262.875H381.688V263.325H379.473V262.875ZM352.91 270.055C352.707 270.055 352.533 270.015 352.39 269.935C352.25 269.855 352.137 269.75 352.05 269.62C351.967 269.487 351.905 269.345 351.865 269.195C351.825 269.042 351.805 268.897 351.805 268.76C351.805 268.577 351.823 268.407 351.86 268.25C351.9 268.093 351.962 267.957 352.045 267.84C352.132 267.72 352.245 267.627 352.385 267.56C352.528 267.49 352.703 267.455 352.91 267.455C353.143 267.455 353.353 267.512 353.54 267.625C353.727 267.735 353.875 267.888 353.985 268.085C354.095 268.278 354.15 268.503 354.15 268.76C354.15 269.017 354.093 269.243 353.98 269.44C353.87 269.633 353.722 269.785 353.535 269.895C353.348 270.002 353.14 270.055 352.91 270.055ZM352.745 269.595C352.912 269.595 353.058 269.56 353.185 269.49C353.312 269.42 353.41 269.322 353.48 269.195C353.55 269.068 353.585 268.923 353.585 268.76C353.585 268.51 353.512 268.307 353.365 268.15C353.218 267.99 353.012 267.91 352.745 267.91C352.578 267.91 352.428 267.945 352.295 268.015C352.162 268.085 352.057 268.183 351.98 268.31C351.903 268.433 351.865 268.583 351.865 268.76C351.865 268.92 351.9 269.063 351.97 269.19C352.04 269.317 352.14 269.417 352.27 269.49C352.4 269.56 352.558 269.595 352.745 269.595ZM351.31 267.51H351.84L351.865 268.12V271H351.31V267.51ZM354.645 267.51H355.2V270H354.645V267.51ZM356.1 267.985C355.92 267.985 355.765 268.023 355.635 268.1C355.508 268.177 355.407 268.27 355.33 268.38C355.253 268.49 355.2 268.597 355.17 268.7L355.165 268.42C355.168 268.383 355.18 268.328 355.2 268.255C355.22 268.178 355.25 268.095 355.29 268.005C355.333 267.915 355.39 267.828 355.46 267.745C355.533 267.658 355.622 267.588 355.725 267.535C355.832 267.482 355.957 267.455 356.1 267.455V267.985ZM357.845 270.055C357.568 270.055 357.32 270.005 357.1 269.905C356.88 269.805 356.707 269.658 356.58 269.465C356.453 269.272 356.39 269.037 356.39 268.76C356.39 268.487 356.453 268.253 356.58 268.06C356.707 267.863 356.88 267.713 357.1 267.61C357.32 267.507 357.568 267.455 357.845 267.455C358.122 267.455 358.368 267.507 358.585 267.61C358.802 267.713 358.972 267.863 359.095 268.06C359.222 268.253 359.285 268.487 359.285 268.76C359.285 269.037 359.222 269.272 359.095 269.465C358.972 269.658 358.802 269.805 358.585 269.905C358.368 270.005 358.122 270.055 357.845 270.055ZM357.845 269.6C358.005 269.6 358.152 269.568 358.285 269.505C358.418 269.442 358.523 269.347 358.6 269.22C358.68 269.093 358.72 268.94 358.72 268.76C358.72 268.58 358.68 268.427 358.6 268.3C358.523 268.173 358.418 268.077 358.285 268.01C358.155 267.94 358.008 267.905 357.845 267.905C357.682 267.905 357.533 267.938 357.4 268.005C357.267 268.072 357.158 268.168 357.075 268.295C356.995 268.422 356.955 268.577 356.955 268.76C356.955 268.94 356.995 269.093 357.075 269.22C357.155 269.347 357.262 269.442 357.395 269.505C357.532 269.568 357.682 269.6 357.845 269.6ZM359.782 267.51H360.337V270H359.782V267.51ZM361.387 267.455C361.53 267.455 361.662 267.475 361.782 267.515C361.905 267.555 362.01 267.617 362.097 267.7C362.187 267.78 362.255 267.88 362.302 268C362.352 268.12 362.377 268.262 362.377 268.425V270H361.822V268.535C361.822 268.332 361.772 268.182 361.672 268.085C361.575 267.985 361.422 267.935 361.212 267.935C361.052 267.935 360.905 267.97 360.772 268.04C360.642 268.107 360.535 268.195 360.452 268.305C360.368 268.412 360.32 268.53 360.307 268.66L360.302 268.39C360.318 268.267 360.355 268.15 360.412 268.04C360.468 267.927 360.543 267.827 360.637 267.74C360.73 267.65 360.84 267.58 360.967 267.53C361.093 267.48 361.233 267.455 361.387 267.455ZM363.372 267.455C363.518 267.455 363.652 267.475 363.772 267.515C363.892 267.555 363.995 267.617 364.082 267.7C364.172 267.78 364.242 267.88 364.292 268C364.342 268.12 364.367 268.262 364.367 268.425V270H363.807V268.535C363.807 268.332 363.757 268.182 363.657 268.085C363.56 267.985 363.407 267.935 363.197 267.935C363.037 267.935 362.89 267.97 362.757 268.04C362.627 268.107 362.52 268.195 362.437 268.305C362.357 268.412 362.31 268.53 362.297 268.66L362.287 268.38C362.303 268.26 362.342 268.145 362.402 268.035C362.462 267.922 362.538 267.822 362.632 267.735C362.725 267.648 362.833 267.58 362.957 267.53C363.083 267.48 363.222 267.455 363.372 267.455ZM366.577 270.055C366.374 270.055 366.2 270.015 366.057 269.935C365.917 269.855 365.804 269.75 365.717 269.62C365.634 269.487 365.572 269.345 365.532 269.195C365.492 269.042 365.472 268.897 365.472 268.76C365.472 268.577 365.49 268.407 365.527 268.25C365.567 268.093 365.629 267.957 365.712 267.84C365.799 267.72 365.912 267.627 366.052 267.56C366.195 267.49 366.37 267.455 366.577 267.455C366.81 267.455 367.02 267.512 367.207 267.625C367.394 267.735 367.542 267.888 367.652 268.085C367.762 268.278 367.817 268.503 367.817 268.76C367.817 269.017 367.76 269.243 367.647 269.44C367.537 269.633 367.389 269.785 367.202 269.895C367.015 270.002 366.807 270.055 366.577 270.055ZM366.412 269.595C366.579 269.595 366.725 269.56 366.852 269.49C366.979 269.42 367.077 269.322 367.147 269.195C367.217 269.068 367.252 268.923 367.252 268.76C367.252 268.51 367.179 268.307 367.032 268.15C366.885 267.99 366.679 267.91 366.412 267.91C366.245 267.91 366.095 267.945 365.962 268.015C365.829 268.085 365.724 268.183 365.647 268.31C365.57 268.433 365.532 268.583 365.532 268.76C365.532 268.92 365.567 269.063 365.637 269.19C365.707 269.317 365.807 269.417 365.937 269.49C366.067 269.56 366.225 269.595 366.412 269.595ZM364.977 267.51H365.507L365.532 268.12V271H364.977V267.51ZM368.137 267.51H369.897V267.965H368.137V267.51ZM368.737 266.84H369.297V270H368.737V266.84ZM371.388 270.445L371.048 270.705C371.048 270.705 371.022 270.675 370.968 270.615C370.918 270.555 370.855 270.465 370.778 270.345C370.705 270.225 370.63 270.08 370.553 269.91C370.477 269.737 370.412 269.538 370.358 269.315C370.308 269.088 370.283 268.84 370.283 268.57C370.283 268.297 370.308 268.048 370.358 267.825C370.412 267.602 370.477 267.405 370.553 267.235C370.63 267.065 370.705 266.922 370.778 266.805C370.855 266.685 370.918 266.595 370.968 266.535C371.022 266.475 371.048 266.445 371.048 266.445L371.388 266.705C371.388 266.705 371.355 266.745 371.288 266.825C371.225 266.905 371.152 267.025 371.068 267.185C370.985 267.342 370.912 267.537 370.848 267.77C370.785 268 370.753 268.267 370.753 268.57C370.753 268.817 370.773 269.04 370.813 269.24C370.857 269.437 370.91 269.61 370.973 269.76C371.037 269.91 371.1 270.035 371.163 270.135C371.227 270.238 371.28 270.315 371.323 270.365C371.367 270.418 371.388 270.445 371.388 270.445ZM372.324 267.78H372.024L371.854 267.155V266.74H372.499V267.155L372.324 267.78ZM373.159 267.78H372.859L372.689 267.155V266.74H373.334V267.155L373.159 267.78ZM375.243 269.785H375.803V271H375.243V269.785ZM375.523 270.06C375.143 270.06 374.811 269.992 374.528 269.855C374.248 269.718 374.029 269.525 373.873 269.275C373.719 269.025 373.643 268.727 373.643 268.38C373.643 268.033 373.719 267.735 373.873 267.485C374.029 267.232 374.248 267.038 374.528 266.905C374.811 266.768 375.143 266.7 375.523 266.7C375.906 266.7 376.238 266.768 376.518 266.905C376.798 267.038 377.014 267.232 377.168 267.485C377.324 267.735 377.403 268.033 377.403 268.38C377.403 268.727 377.324 269.025 377.168 269.275C377.014 269.525 376.798 269.718 376.518 269.855C376.238 269.992 375.906 270.06 375.523 270.06ZM375.523 269.56C375.776 269.56 375.999 269.517 376.193 269.43C376.386 269.343 376.538 269.213 376.648 269.04C376.761 268.863 376.818 268.643 376.818 268.38C376.818 268.12 376.761 267.903 376.648 267.73C376.538 267.553 376.386 267.422 376.193 267.335C375.999 267.245 375.776 267.2 375.523 267.2C375.273 267.2 375.049 267.245 374.853 267.335C374.656 267.422 374.501 267.553 374.388 267.73C374.274 267.903 374.218 268.12 374.218 268.38C374.218 268.643 374.274 268.863 374.388 269.04C374.501 269.213 374.656 269.343 374.853 269.43C375.049 269.517 375.273 269.56 375.523 269.56ZM380.57 270H380.015V267.51H380.57V270ZM380.045 268.815L380.05 268.975C380.043 269.018 380.028 269.083 380.005 269.17C379.985 269.257 379.95 269.352 379.9 269.455C379.853 269.555 379.79 269.652 379.71 269.745C379.633 269.835 379.537 269.91 379.42 269.97C379.303 270.027 379.162 270.055 378.995 270.055C378.875 270.055 378.753 270.038 378.63 270.005C378.51 269.975 378.4 269.923 378.3 269.85C378.203 269.777 378.125 269.677 378.065 269.55C378.005 269.423 377.975 269.263 377.975 269.07V267.51H378.53V268.965C378.53 269.122 378.555 269.245 378.605 269.335C378.658 269.422 378.732 269.483 378.825 269.52C378.918 269.557 379.027 269.575 379.15 269.575C379.327 269.575 379.477 269.535 379.6 269.455C379.723 269.375 379.822 269.277 379.895 269.16C379.972 269.04 380.022 268.925 380.045 268.815ZM383.263 269.18H383.798C383.771 269.35 383.705 269.502 383.598 269.635C383.495 269.765 383.353 269.868 383.173 269.945C382.993 270.018 382.778 270.055 382.528 270.055C382.245 270.055 381.991 270.003 381.768 269.9C381.545 269.793 381.37 269.643 381.243 269.45C381.116 269.257 381.053 269.027 381.053 268.76C381.053 268.497 381.115 268.267 381.238 268.07C381.361 267.873 381.531 267.722 381.748 267.615C381.968 267.508 382.221 267.455 382.508 267.455C382.805 267.455 383.051 267.508 383.248 267.615C383.448 267.718 383.596 267.875 383.693 268.085C383.79 268.292 383.83 268.553 383.813 268.87H381.618C381.635 269.01 381.68 269.137 381.753 269.25C381.83 269.36 381.933 269.447 382.063 269.51C382.193 269.57 382.345 269.6 382.518 269.6C382.711 269.6 382.873 269.562 383.003 269.485C383.136 269.408 383.223 269.307 383.263 269.18ZM382.493 267.905C382.266 267.905 382.08 267.962 381.933 268.075C381.786 268.185 381.691 268.327 381.648 268.5H383.253C383.24 268.313 383.165 268.168 383.028 268.065C382.891 267.958 382.713 267.905 382.493 267.905ZM384.358 266.51H384.913V270H384.358V266.51ZM388.82 269.18H389.355C389.328 269.35 389.261 269.502 389.155 269.635C389.051 269.765 388.91 269.868 388.73 269.945C388.55 270.018 388.335 270.055 388.085 270.055C387.801 270.055 387.548 270.003 387.325 269.9C387.101 269.793 386.926 269.643 386.8 269.45C386.673 269.257 386.61 269.027 386.61 268.76C386.61 268.497 386.671 268.267 386.795 268.07C386.918 267.873 387.088 267.722 387.305 267.615C387.525 267.508 387.778 267.455 388.065 267.455C388.361 267.455 388.608 267.508 388.805 267.615C389.005 267.718 389.153 267.875 389.25 268.085C389.346 268.292 389.386 268.553 389.37 268.87H387.175C387.191 269.01 387.236 269.137 387.31 269.25C387.386 269.36 387.49 269.447 387.62 269.51C387.75 269.57 387.901 269.6 388.075 269.6C388.268 269.6 388.43 269.562 388.56 269.485C388.693 269.408 388.78 269.307 388.82 269.18ZM388.05 267.905C387.823 267.905 387.636 267.962 387.49 268.075C387.343 268.185 387.248 268.327 387.205 268.5H388.81C388.796 268.313 388.721 268.168 388.585 268.065C388.448 267.958 388.27 267.905 388.05 267.905ZM389.755 269.18H390.27C390.296 269.307 390.365 269.41 390.475 269.49C390.585 269.567 390.733 269.605 390.92 269.605C391.04 269.605 391.133 269.592 391.2 269.565C391.27 269.538 391.318 269.502 391.345 269.455C391.375 269.408 391.39 269.355 391.39 269.295C391.39 269.222 391.368 269.165 391.325 269.125C391.285 269.085 391.225 269.052 391.145 269.025C391.065 268.998 390.965 268.975 390.845 268.955C390.721 268.925 390.6 268.892 390.48 268.855C390.36 268.818 390.251 268.773 390.155 268.72C390.058 268.663 389.981 268.593 389.925 268.51C389.871 268.423 389.845 268.318 389.845 268.195C389.845 268.082 389.87 267.98 389.92 267.89C389.973 267.797 390.046 267.718 390.14 267.655C390.233 267.592 390.343 267.543 390.47 267.51C390.596 267.473 390.735 267.455 390.885 267.455C391.101 267.455 391.281 267.49 391.425 267.56C391.571 267.63 391.681 267.728 391.755 267.855C391.831 267.982 391.87 268.127 391.87 268.29H391.38C391.353 268.157 391.301 268.06 391.225 268C391.148 267.94 391.033 267.91 390.88 267.91C390.726 267.91 390.61 267.937 390.53 267.99C390.45 268.043 390.41 268.117 390.41 268.21C390.41 268.28 390.435 268.337 390.485 268.38C390.538 268.42 390.613 268.455 390.71 268.485C390.806 268.515 390.92 268.545 391.05 268.575C391.17 268.608 391.283 268.643 391.39 268.68C391.496 268.713 391.591 268.757 391.675 268.81C391.761 268.86 391.83 268.927 391.88 269.01C391.93 269.093 391.955 269.197 391.955 269.32C391.955 269.473 391.913 269.605 391.83 269.715C391.75 269.825 391.633 269.91 391.48 269.97C391.326 270.027 391.141 270.055 390.925 270.055C390.735 270.055 390.57 270.033 390.43 269.99C390.293 269.947 390.178 269.89 390.085 269.82C389.995 269.75 389.925 269.675 389.875 269.595C389.825 269.515 389.79 269.438 389.77 269.365C389.753 269.292 389.748 269.23 389.755 269.18ZM392.282 267.51H394.042V267.965H392.282V267.51ZM392.882 266.84H393.442V270H392.882V266.84ZM352.53 275.605H352.335L353.195 273.51H353.8L352.7 276H352.17L351.085 273.51H351.695L352.53 275.605ZM355.428 276.055C355.151 276.055 354.903 276.005 354.683 275.905C354.463 275.805 354.29 275.658 354.163 275.465C354.036 275.272 353.973 275.037 353.973 274.76C353.973 274.487 354.036 274.253 354.163 274.06C354.29 273.863 354.463 273.713 354.683 273.61C354.903 273.507 355.151 273.455 355.428 273.455C355.705 273.455 355.951 273.507 356.168 273.61C356.385 273.713 356.555 273.863 356.678 274.06C356.805 274.253 356.868 274.487 356.868 274.76C356.868 275.037 356.805 275.272 356.678 275.465C356.555 275.658 356.385 275.805 356.168 275.905C355.951 276.005 355.705 276.055 355.428 276.055ZM355.428 275.6C355.588 275.6 355.735 275.568 355.868 275.505C356.001 275.442 356.106 275.347 356.183 275.22C356.263 275.093 356.303 274.94 356.303 274.76C356.303 274.58 356.263 274.427 356.183 274.3C356.106 274.173 356.001 274.077 355.868 274.01C355.738 273.94 355.591 273.905 355.428 273.905C355.265 273.905 355.116 273.938 354.983 274.005C354.85 274.072 354.741 274.168 354.658 274.295C354.578 274.422 354.538 274.577 354.538 274.76C354.538 274.94 354.578 275.093 354.658 275.22C354.738 275.347 354.845 275.442 354.978 275.505C355.115 275.568 355.265 275.6 355.428 275.6ZM357.151 273.51H358.911V273.965H357.151V273.51ZM357.751 272.84H358.311V276H357.751V272.84ZM359.347 273.51H359.902V276H359.347V273.51ZM360.802 273.985C360.622 273.985 360.467 274.023 360.337 274.1C360.21 274.177 360.109 274.27 360.032 274.38C359.955 274.49 359.902 274.597 359.872 274.7L359.867 274.42C359.87 274.383 359.882 274.328 359.902 274.255C359.922 274.178 359.952 274.095 359.992 274.005C360.035 273.915 360.092 273.828 360.162 273.745C360.235 273.658 360.324 273.588 360.427 273.535C360.534 273.482 360.659 273.455 360.802 273.455V273.985ZM363.302 275.18H363.837C363.81 275.35 363.744 275.502 363.637 275.635C363.534 275.765 363.392 275.868 363.212 275.945C363.032 276.018 362.817 276.055 362.567 276.055C362.284 276.055 362.03 276.003 361.807 275.9C361.584 275.793 361.409 275.643 361.282 275.45C361.155 275.257 361.092 275.027 361.092 274.76C361.092 274.497 361.154 274.267 361.277 274.07C361.4 273.873 361.57 273.722 361.787 273.615C362.007 273.508 362.26 273.455 362.547 273.455C362.844 273.455 363.09 273.508 363.287 273.615C363.487 273.718 363.635 273.875 363.732 274.085C363.829 274.292 363.869 274.553 363.852 274.87H361.657C361.674 275.01 361.719 275.137 361.792 275.25C361.869 275.36 361.972 275.447 362.102 275.51C362.232 275.57 362.384 275.6 362.557 275.6C362.75 275.6 362.912 275.562 363.042 275.485C363.175 275.408 363.262 275.307 363.302 275.18ZM362.532 273.905C362.305 273.905 362.119 273.962 361.972 274.075C361.825 274.185 361.73 274.327 361.687 274.5H363.292C363.279 274.313 363.204 274.168 363.067 274.065C362.93 273.958 362.752 273.905 362.532 273.905ZM365.499 273.51H366.054V276H365.499V273.51ZM367.104 273.455C367.248 273.455 367.379 273.475 367.499 273.515C367.623 273.555 367.728 273.617 367.814 273.7C367.904 273.78 367.973 273.88 368.019 274C368.069 274.12 368.094 274.262 368.094 274.425V276H367.539V274.535C367.539 274.332 367.489 274.182 367.389 274.085C367.293 273.985 367.139 273.935 366.929 273.935C366.769 273.935 366.623 273.97 366.489 274.04C366.359 274.107 366.253 274.195 366.169 274.305C366.086 274.412 366.038 274.53 366.024 274.66L366.019 274.39C366.036 274.267 366.073 274.15 366.129 274.04C366.186 273.927 366.261 273.827 366.354 273.74C366.448 273.65 366.558 273.58 366.684 273.53C366.811 273.48 366.951 273.455 367.104 273.455ZM370.032 276.055C369.756 276.055 369.507 276.005 369.287 275.905C369.067 275.805 368.894 275.658 368.767 275.465C368.641 275.272 368.577 275.037 368.577 274.76C368.577 274.487 368.641 274.253 368.767 274.06C368.894 273.863 369.067 273.713 369.287 273.61C369.507 273.507 369.756 273.455 370.032 273.455C370.309 273.455 370.556 273.507 370.772 273.61C370.989 273.713 371.159 273.863 371.282 274.06C371.409 274.253 371.472 274.487 371.472 274.76C371.472 275.037 371.409 275.272 371.282 275.465C371.159 275.658 370.989 275.805 370.772 275.905C370.556 276.005 370.309 276.055 370.032 276.055ZM370.032 275.6C370.192 275.6 370.339 275.568 370.472 275.505C370.606 275.442 370.711 275.347 370.787 275.22C370.867 275.093 370.907 274.94 370.907 274.76C370.907 274.58 370.867 274.427 370.787 274.3C370.711 274.173 370.606 274.077 370.472 274.01C370.342 273.94 370.196 273.905 370.032 273.905C369.869 273.905 369.721 273.938 369.587 274.005C369.454 274.072 369.346 274.168 369.262 274.295C369.182 274.422 369.142 274.577 369.142 274.76C369.142 274.94 369.182 275.093 369.262 275.22C369.342 275.347 369.449 275.442 369.582 275.505C369.719 275.568 369.869 275.6 370.032 275.6ZM371.969 273.51H372.524V276H371.969V273.51ZM373.574 273.455C373.718 273.455 373.849 273.475 373.969 273.515C374.093 273.555 374.198 273.617 374.284 273.7C374.374 273.78 374.443 273.88 374.489 274C374.539 274.12 374.564 274.262 374.564 274.425V276H374.009V274.535C374.009 274.332 373.959 274.182 373.859 274.085C373.763 273.985 373.609 273.935 373.399 273.935C373.239 273.935 373.093 273.97 372.959 274.04C372.829 274.107 372.723 274.195 372.639 274.305C372.556 274.412 372.508 274.53 372.494 274.66L372.489 274.39C372.506 274.267 372.543 274.15 372.599 274.04C372.656 273.927 372.731 273.827 372.824 273.74C372.918 273.65 373.028 273.58 373.154 273.53C373.281 273.48 373.421 273.455 373.574 273.455ZM375.559 273.455C375.706 273.455 375.839 273.475 375.959 273.515C376.079 273.555 376.183 273.617 376.269 273.7C376.359 273.78 376.429 273.88 376.479 274C376.529 274.12 376.554 274.262 376.554 274.425V276H375.994V274.535C375.994 274.332 375.944 274.182 375.844 274.085C375.748 273.985 375.594 273.935 375.384 273.935C375.224 273.935 375.078 273.97 374.944 274.04C374.814 274.107 374.708 274.195 374.624 274.305C374.544 274.412 374.498 274.53 374.484 274.66L374.474 274.38C374.491 274.26 374.529 274.145 374.589 274.035C374.649 273.922 374.726 273.822 374.819 273.735C374.913 273.648 375.021 273.58 375.144 273.53C375.271 273.48 375.409 273.455 375.559 273.455ZM377.944 274.995V274.15H378.174C378.444 274.15 378.643 274.097 378.769 273.99C378.899 273.883 378.964 273.733 378.964 273.54C378.964 273.353 378.904 273.208 378.784 273.105C378.668 273.002 378.513 272.95 378.319 272.95C378.186 272.95 378.071 272.973 377.974 273.02C377.881 273.067 377.809 273.132 377.759 273.215C377.709 273.295 377.684 273.387 377.684 273.49H377.129C377.126 273.39 377.139 273.29 377.169 273.19C377.203 273.09 377.251 272.995 377.314 272.905C377.381 272.815 377.463 272.737 377.559 272.67C377.656 272.603 377.769 272.552 377.899 272.515C378.029 272.475 378.176 272.455 378.339 272.455C378.536 272.455 378.708 272.482 378.854 272.535C379.004 272.588 379.129 272.663 379.229 272.76C379.329 272.857 379.404 272.97 379.454 273.1C379.508 273.23 379.534 273.373 379.534 273.53C379.534 273.74 379.488 273.92 379.394 274.07C379.301 274.217 379.176 274.33 379.019 274.41C378.863 274.49 378.688 274.538 378.494 274.555V274.995H377.944ZM377.894 276V275.46H378.559V276H377.894ZM380.474 273.78H380.174L380.004 273.155V272.74H380.649V273.155L380.474 273.78ZM381.309 273.78H381.009L380.839 273.155V272.74H381.484V273.155L381.309 273.78ZM381.944 276.445C381.944 276.445 381.965 276.42 382.009 276.37C382.052 276.32 382.105 276.243 382.169 276.14C382.232 276.037 382.294 275.91 382.354 275.76C382.417 275.61 382.47 275.437 382.514 275.24C382.557 275.04 382.579 274.817 382.579 274.57C382.579 274.267 382.545 274 382.479 273.77C382.415 273.537 382.342 273.342 382.259 273.185C382.179 273.025 382.105 272.905 382.039 272.825C381.975 272.745 381.944 272.705 381.944 272.705L382.284 272.445C382.284 272.445 382.309 272.475 382.359 272.535C382.412 272.595 382.477 272.685 382.554 272.805C382.63 272.922 382.705 273.065 382.779 273.235C382.855 273.405 382.919 273.602 382.969 273.825C383.022 274.048 383.049 274.297 383.049 274.57C383.049 274.84 383.022 275.088 382.969 275.315C382.919 275.538 382.855 275.737 382.779 275.91C382.702 276.08 382.625 276.225 382.549 276.345C382.475 276.465 382.412 276.555 382.359 276.615C382.309 276.675 382.284 276.705 382.284 276.705L381.944 276.445ZM384.29 273.58V274.12H383.625V273.58H384.29ZM383.765 276.69L383.665 276.545C383.718 276.465 383.766 276.378 383.81 276.285C383.856 276.195 383.881 276.105 383.885 276.015L383.62 275.96V275.42H384.305V275.805C384.305 276.032 384.253 276.213 384.15 276.35C384.05 276.49 383.921 276.603 383.765 276.69ZM353.99 281.035C353.97 281.248 353.902 281.432 353.785 281.585C353.668 281.738 353.512 281.855 353.315 281.935C353.122 282.015 352.898 282.055 352.645 282.055C352.372 282.055 352.123 282.005 351.9 281.905C351.68 281.805 351.505 281.658 351.375 281.465C351.245 281.272 351.18 281.037 351.18 280.76C351.18 280.483 351.245 280.248 351.375 280.055C351.505 279.862 351.68 279.713 351.9 279.61C352.123 279.507 352.372 279.455 352.645 279.455C352.898 279.455 353.122 279.497 353.315 279.58C353.508 279.66 353.663 279.775 353.78 279.925C353.897 280.075 353.965 280.257 353.985 280.47H353.475C353.418 280.293 353.315 280.157 353.165 280.06C353.018 279.96 352.845 279.91 352.645 279.91C352.482 279.91 352.332 279.943 352.195 280.01C352.058 280.073 351.948 280.168 351.865 280.295C351.785 280.418 351.745 280.573 351.745 280.76C351.745 280.943 351.785 281.098 351.865 281.225C351.948 281.352 352.058 281.447 352.195 281.51C352.332 281.57 352.482 281.6 352.645 281.6C352.865 281.6 353.045 281.552 353.185 281.455C353.328 281.355 353.427 281.215 353.48 281.035H353.99ZM355.804 282.055C355.527 282.055 355.279 282.005 355.059 281.905C354.839 281.805 354.666 281.658 354.539 281.465C354.412 281.272 354.349 281.037 354.349 280.76C354.349 280.487 354.412 280.253 354.539 280.06C354.666 279.863 354.839 279.713 355.059 279.61C355.279 279.507 355.527 279.455 355.804 279.455C356.081 279.455 356.327 279.507 356.544 279.61C356.761 279.713 356.931 279.863 357.054 280.06C357.181 280.253 357.244 280.487 357.244 280.76C357.244 281.037 357.181 281.272 357.054 281.465C356.931 281.658 356.761 281.805 356.544 281.905C356.327 282.005 356.081 282.055 355.804 282.055ZM355.804 281.6C355.964 281.6 356.111 281.568 356.244 281.505C356.377 281.442 356.482 281.347 356.559 281.22C356.639 281.093 356.679 280.94 356.679 280.76C356.679 280.58 356.639 280.427 356.559 280.3C356.482 280.173 356.377 280.077 356.244 280.01C356.114 279.94 355.967 279.905 355.804 279.905C355.641 279.905 355.492 279.938 355.359 280.005C355.226 280.072 355.117 280.168 355.034 280.295C354.954 280.422 354.914 280.577 354.914 280.76C354.914 280.94 354.954 281.093 355.034 281.22C355.114 281.347 355.221 281.442 355.354 281.505C355.491 281.568 355.641 281.6 355.804 281.6ZM357.741 279.51H358.296V282H357.741V279.51ZM359.346 279.455C359.489 279.455 359.621 279.475 359.741 279.515C359.864 279.555 359.969 279.617 360.056 279.7C360.146 279.78 360.214 279.88 360.261 280C360.311 280.12 360.336 280.262 360.336 280.425V282H359.781V280.535C359.781 280.332 359.731 280.182 359.631 280.085C359.534 279.985 359.381 279.935 359.171 279.935C359.011 279.935 358.864 279.97 358.731 280.04C358.601 280.107 358.494 280.195 358.411 280.305C358.327 280.412 358.279 280.53 358.266 280.66L358.261 280.39C358.277 280.267 358.314 280.15 358.371 280.04C358.427 279.927 358.502 279.827 358.596 279.74C358.689 279.65 358.799 279.58 358.926 279.53C359.052 279.48 359.192 279.455 359.346 279.455ZM360.839 281.18H361.354C361.38 281.307 361.449 281.41 361.559 281.49C361.669 281.567 361.817 281.605 362.004 281.605C362.124 281.605 362.217 281.592 362.284 281.565C362.354 281.538 362.402 281.502 362.429 281.455C362.459 281.408 362.474 281.355 362.474 281.295C362.474 281.222 362.452 281.165 362.409 281.125C362.369 281.085 362.309 281.052 362.229 281.025C362.149 280.998 362.049 280.975 361.929 280.955C361.805 280.925 361.684 280.892 361.564 280.855C361.444 280.818 361.335 280.773 361.239 280.72C361.142 280.663 361.065 280.593 361.009 280.51C360.955 280.423 360.929 280.318 360.929 280.195C360.929 280.082 360.954 279.98 361.004 279.89C361.057 279.797 361.13 279.718 361.224 279.655C361.317 279.592 361.427 279.543 361.554 279.51C361.68 279.473 361.819 279.455 361.969 279.455C362.185 279.455 362.365 279.49 362.509 279.56C362.655 279.63 362.765 279.728 362.839 279.855C362.915 279.982 362.954 280.127 362.954 280.29H362.464C362.437 280.157 362.385 280.06 362.309 280C362.232 279.94 362.117 279.91 361.964 279.91C361.81 279.91 361.694 279.937 361.614 279.99C361.534 280.043 361.494 280.117 361.494 280.21C361.494 280.28 361.519 280.337 361.569 280.38C361.622 280.42 361.697 280.455 361.794 280.485C361.89 280.515 362.004 280.545 362.134 280.575C362.254 280.608 362.367 280.643 362.474 280.68C362.58 280.713 362.675 280.757 362.759 280.81C362.845 280.86 362.914 280.927 362.964 281.01C363.014 281.093 363.039 281.197 363.039 281.32C363.039 281.473 362.997 281.605 362.914 281.715C362.834 281.825 362.717 281.91 362.564 281.97C362.41 282.027 362.225 282.055 362.009 282.055C361.819 282.055 361.654 282.033 361.514 281.99C361.377 281.947 361.262 281.89 361.169 281.82C361.079 281.75 361.009 281.675 360.959 281.595C360.909 281.515 360.874 281.438 360.854 281.365C360.837 281.292 360.832 281.23 360.839 281.18ZM364.866 282.055C364.59 282.055 364.341 282.005 364.121 281.905C363.901 281.805 363.728 281.658 363.601 281.465C363.475 281.272 363.411 281.037 363.411 280.76C363.411 280.487 363.475 280.253 363.601 280.06C363.728 279.863 363.901 279.713 364.121 279.61C364.341 279.507 364.59 279.455 364.866 279.455C365.143 279.455 365.39 279.507 365.606 279.61C365.823 279.713 365.993 279.863 366.116 280.06C366.243 280.253 366.306 280.487 366.306 280.76C366.306 281.037 366.243 281.272 366.116 281.465C365.993 281.658 365.823 281.805 365.606 281.905C365.39 282.005 365.143 282.055 364.866 282.055ZM364.866 281.6C365.026 281.6 365.173 281.568 365.306 281.505C365.44 281.442 365.545 281.347 365.621 281.22C365.701 281.093 365.741 280.94 365.741 280.76C365.741 280.58 365.701 280.427 365.621 280.3C365.545 280.173 365.44 280.077 365.306 280.01C365.176 279.94 365.03 279.905 364.866 279.905C364.703 279.905 364.555 279.938 364.421 280.005C364.288 280.072 364.18 280.168 364.096 280.295C364.016 280.422 363.976 280.577 363.976 280.76C363.976 280.94 364.016 281.093 364.096 281.22C364.176 281.347 364.283 281.442 364.416 281.505C364.553 281.568 364.703 281.6 364.866 281.6ZM366.853 278.51H367.408V282H366.853V278.51ZM370.162 281.18H370.697C370.671 281.35 370.604 281.502 370.497 281.635C370.394 281.765 370.252 281.868 370.072 281.945C369.892 282.018 369.677 282.055 369.427 282.055C369.144 282.055 368.891 282.003 368.667 281.9C368.444 281.793 368.269 281.643 368.142 281.45C368.016 281.257 367.952 281.027 367.952 280.76C367.952 280.497 368.014 280.267 368.137 280.07C368.261 279.873 368.431 279.722 368.647 279.615C368.867 279.508 369.121 279.455 369.407 279.455C369.704 279.455 369.951 279.508 370.147 279.615C370.347 279.718 370.496 279.875 370.592 280.085C370.689 280.292 370.729 280.553 370.712 280.87H368.517C368.534 281.01 368.579 281.137 368.652 281.25C368.729 281.36 368.832 281.447 368.962 281.51C369.092 281.57 369.244 281.6 369.417 281.6C369.611 281.6 369.772 281.562 369.902 281.485C370.036 281.408 370.122 281.307 370.162 281.18ZM369.392 279.905C369.166 279.905 368.979 279.962 368.832 280.075C368.686 280.185 368.591 280.327 368.547 280.5H370.152C370.139 280.313 370.064 280.168 369.927 280.065C369.791 279.958 369.612 279.905 369.392 279.905ZM371.824 281.46V282H371.159V281.46H371.824ZM372.493 278.51H373.048V282H372.493V278.51ZM375.047 282.055C374.77 282.055 374.522 282.005 374.302 281.905C374.082 281.805 373.909 281.658 373.782 281.465C373.655 281.272 373.592 281.037 373.592 280.76C373.592 280.487 373.655 280.253 373.782 280.06C373.909 279.863 374.082 279.713 374.302 279.61C374.522 279.507 374.77 279.455 375.047 279.455C375.324 279.455 375.57 279.507 375.787 279.61C376.004 279.713 376.174 279.863 376.297 280.06C376.424 280.253 376.487 280.487 376.487 280.76C376.487 281.037 376.424 281.272 376.297 281.465C376.174 281.658 376.004 281.805 375.787 281.905C375.57 282.005 375.324 282.055 375.047 282.055ZM375.047 281.6C375.207 281.6 375.354 281.568 375.487 281.505C375.62 281.442 375.725 281.347 375.802 281.22C375.882 281.093 375.922 280.94 375.922 280.76C375.922 280.58 375.882 280.427 375.802 280.3C375.725 280.173 375.62 280.077 375.487 280.01C375.357 279.94 375.21 279.905 375.047 279.905C374.884 279.905 374.735 279.938 374.602 280.005C374.469 280.072 374.36 280.168 374.277 280.295C374.197 280.422 374.157 280.577 374.157 280.76C374.157 280.94 374.197 281.093 374.277 281.22C374.357 281.347 374.464 281.442 374.597 281.505C374.734 281.568 374.884 281.6 375.047 281.6ZM378.094 281.615C377.86 281.615 377.649 281.573 377.459 281.49C377.272 281.407 377.124 281.285 377.014 281.125C376.907 280.965 376.854 280.773 376.854 280.55C376.854 280.327 376.905 280.133 377.009 279.97C377.115 279.807 377.262 279.68 377.449 279.59C377.639 279.5 377.854 279.455 378.094 279.455C378.164 279.455 378.23 279.46 378.294 279.47C378.36 279.48 378.424 279.493 378.484 279.51L379.649 279.515V279.98C379.489 279.983 379.327 279.962 379.164 279.915C379.004 279.865 378.862 279.813 378.739 279.76L378.724 279.73C378.837 279.787 378.939 279.857 379.029 279.94C379.122 280.02 379.195 280.112 379.249 280.215C379.302 280.318 379.329 280.435 379.329 280.565C379.329 280.785 379.275 280.973 379.169 281.13C379.065 281.287 378.92 281.407 378.734 281.49C378.55 281.573 378.337 281.615 378.094 281.615ZM378.894 283.015V282.9C378.894 282.737 378.845 282.622 378.749 282.555C378.652 282.488 378.517 282.455 378.344 282.455H377.669C377.535 282.455 377.42 282.443 377.324 282.42C377.23 282.4 377.155 282.368 377.099 282.325C377.042 282.285 377 282.237 376.974 282.18C376.947 282.127 376.934 282.067 376.934 282C376.934 281.867 376.974 281.767 377.054 281.7C377.137 281.633 377.245 281.59 377.379 281.57C377.515 281.55 377.659 281.547 377.809 281.56L378.094 281.615C377.897 281.622 377.747 281.64 377.644 281.67C377.544 281.697 377.494 281.752 377.494 281.835C377.494 281.885 377.514 281.925 377.554 281.955C377.594 281.985 377.65 282 377.724 282H378.434C378.637 282 378.815 282.023 378.969 282.07C379.122 282.12 379.24 282.202 379.324 282.315C379.41 282.432 379.454 282.59 379.454 282.79V283.015H378.894ZM378.094 281.18C378.227 281.18 378.345 281.155 378.449 281.105C378.552 281.055 378.634 280.983 378.694 280.89C378.754 280.797 378.784 280.683 378.784 280.55C378.784 280.417 378.754 280.302 378.694 280.205C378.634 280.108 378.552 280.035 378.449 279.985C378.345 279.935 378.227 279.91 378.094 279.91C377.964 279.91 377.845 279.935 377.739 279.985C377.635 280.035 377.554 280.108 377.494 280.205C377.434 280.298 377.404 280.413 377.404 280.55C377.404 280.683 377.434 280.797 377.494 280.89C377.554 280.983 377.635 281.055 377.739 281.105C377.842 281.155 377.96 281.18 378.094 281.18ZM381.149 282.445L380.809 282.705C380.809 282.705 380.783 282.675 380.729 282.615C380.679 282.555 380.616 282.465 380.539 282.345C380.466 282.225 380.391 282.08 380.314 281.91C380.238 281.737 380.173 281.538 380.119 281.315C380.069 281.088 380.044 280.84 380.044 280.57C380.044 280.297 380.069 280.048 380.119 279.825C380.173 279.602 380.238 279.405 380.314 279.235C380.391 279.065 380.466 278.922 380.539 278.805C380.616 278.685 380.679 278.595 380.729 278.535C380.783 278.475 380.809 278.445 380.809 278.445L381.149 278.705C381.149 278.705 381.116 278.745 381.049 278.825C380.986 278.905 380.913 279.025 380.829 279.185C380.746 279.342 380.673 279.537 380.609 279.77C380.546 280 380.514 280.267 380.514 280.57C380.514 280.817 380.534 281.04 380.574 281.24C380.618 281.437 380.671 281.61 380.734 281.76C380.798 281.91 380.861 282.035 380.924 282.135C380.988 282.238 381.041 282.315 381.084 282.365C381.128 282.418 381.149 282.445 381.149 282.445ZM382.75 278.995L381.91 278.2H382.645L383.27 278.995H382.75ZM384.159 282V278.76H385.809C386.205 278.76 386.509 278.835 386.719 278.985C386.932 279.132 387.039 279.345 387.039 279.625C387.039 279.805 386.997 279.948 386.914 280.055C386.834 280.158 386.719 280.237 386.569 280.29C386.419 280.34 386.242 280.372 386.039 280.385L386.059 280.355C386.205 280.358 386.344 280.372 386.474 280.395C386.607 280.415 386.724 280.452 386.824 280.505C386.927 280.558 387.007 280.633 387.064 280.73C387.124 280.823 387.154 280.945 387.154 281.095C387.154 281.295 387.104 281.46 387.004 281.59C386.904 281.72 386.765 281.82 386.589 281.89C386.412 281.957 386.209 281.993 385.979 282H384.159ZM384.729 281.515H385.894C386.11 281.515 386.279 281.478 386.399 281.405C386.519 281.328 386.579 281.21 386.579 281.05C386.579 280.923 386.542 280.832 386.469 280.775C386.395 280.715 386.3 280.677 386.184 280.66C386.07 280.643 385.949 280.635 385.819 280.635H384.729V281.515ZM384.729 280.16H385.774C385.99 280.16 386.157 280.123 386.274 280.05C386.394 279.973 386.454 279.853 386.454 279.69C386.454 279.53 386.394 279.417 386.274 279.35C386.157 279.28 386.004 279.245 385.814 279.245H384.729V280.16ZM388.997 282.055C388.721 282.055 388.472 282.005 388.252 281.905C388.032 281.805 387.859 281.658 387.732 281.465C387.606 281.272 387.542 281.037 387.542 280.76C387.542 280.487 387.606 280.253 387.732 280.06C387.859 279.863 388.032 279.713 388.252 279.61C388.472 279.507 388.721 279.455 388.997 279.455C389.274 279.455 389.521 279.507 389.737 279.61C389.954 279.713 390.124 279.863 390.247 280.06C390.374 280.253 390.437 280.487 390.437 280.76C390.437 281.037 390.374 281.272 390.247 281.465C390.124 281.658 389.954 281.805 389.737 281.905C389.521 282.005 389.274 282.055 388.997 282.055ZM388.997 281.6C389.157 281.6 389.304 281.568 389.437 281.505C389.571 281.442 389.676 281.347 389.752 281.22C389.832 281.093 389.872 280.94 389.872 280.76C389.872 280.58 389.832 280.427 389.752 280.3C389.676 280.173 389.571 280.077 389.437 280.01C389.307 279.94 389.161 279.905 388.997 279.905C388.834 279.905 388.686 279.938 388.552 280.005C388.419 280.072 388.311 280.168 388.227 280.295C388.147 280.422 388.107 280.577 388.107 280.76C388.107 280.94 388.147 281.093 388.227 281.22C388.307 281.347 388.414 281.442 388.547 281.505C388.684 281.568 388.834 281.6 388.997 281.6ZM390.934 279.51H391.489V282H390.934V279.51ZM392.539 279.455C392.682 279.455 392.814 279.475 392.934 279.515C393.057 279.555 393.162 279.617 393.249 279.7C393.339 279.78 393.407 279.88 393.454 280C393.504 280.12 393.529 280.262 393.529 280.425V282H392.974V280.535C392.974 280.332 392.924 280.182 392.824 280.085C392.727 279.985 392.574 279.935 392.364 279.935C392.204 279.935 392.057 279.97 391.924 280.04C391.794 280.107 391.687 280.195 391.604 280.305C391.521 280.412 391.472 280.53 391.459 280.66L391.454 280.39C391.471 280.267 391.507 280.15 391.564 280.04C391.621 279.927 391.696 279.827 391.789 279.74C391.882 279.65 391.992 279.58 392.119 279.53C392.246 279.48 392.386 279.455 392.539 279.455ZM394.187 279.51H394.747V283H394.187V279.51ZM394.792 278.455V278.99H394.127V278.455H394.792ZM396.727 282.055C396.45 282.055 396.202 282.005 395.982 281.905C395.762 281.805 395.588 281.658 395.462 281.465C395.335 281.272 395.272 281.037 395.272 280.76C395.272 280.487 395.335 280.253 395.462 280.06C395.588 279.863 395.762 279.713 395.982 279.61C396.202 279.507 396.45 279.455 396.727 279.455C397.003 279.455 397.25 279.507 397.467 279.61C397.683 279.713 397.853 279.863 397.977 280.06C398.103 280.253 398.167 280.487 398.167 280.76C398.167 281.037 398.103 281.272 397.977 281.465C397.853 281.658 397.683 281.805 397.467 281.905C397.25 282.005 397.003 282.055 396.727 282.055ZM396.727 281.6C396.887 281.6 397.033 281.568 397.167 281.505C397.3 281.442 397.405 281.347 397.482 281.22C397.562 281.093 397.602 280.94 397.602 280.76C397.602 280.58 397.562 280.427 397.482 280.3C397.405 280.173 397.3 280.077 397.167 280.01C397.037 279.94 396.89 279.905 396.727 279.905C396.563 279.905 396.415 279.938 396.282 280.005C396.148 280.072 396.04 280.168 395.957 280.295C395.877 280.422 395.837 280.577 395.837 280.76C395.837 280.94 395.877 281.093 395.957 281.22C396.037 281.347 396.143 281.442 396.277 281.505C396.413 281.568 396.563 281.6 396.727 281.6ZM353.905 288H353.35V285.51H353.905V288ZM353.38 286.815L353.385 286.975C353.378 287.018 353.363 287.083 353.34 287.17C353.32 287.257 353.285 287.352 353.235 287.455C353.188 287.555 353.125 287.652 353.045 287.745C352.968 287.835 352.872 287.91 352.755 287.97C352.638 288.027 352.497 288.055 352.33 288.055C352.21 288.055 352.088 288.038 351.965 288.005C351.845 287.975 351.735 287.923 351.635 287.85C351.538 287.777 351.46 287.677 351.4 287.55C351.34 287.423 351.31 287.263 351.31 287.07V285.51H351.865V286.965C351.865 287.122 351.89 287.245 351.94 287.335C351.993 287.422 352.067 287.483 352.16 287.52C352.253 287.557 352.362 287.575 352.485 287.575C352.662 287.575 352.812 287.535 352.935 287.455C353.058 287.375 353.157 287.277 353.23 287.16C353.307 287.04 353.357 286.925 353.38 286.815ZM354.518 285.51H355.073V288H354.518V285.51ZM355.973 285.985C355.793 285.985 355.638 286.023 355.508 286.1C355.381 286.177 355.28 286.27 355.203 286.38C355.126 286.49 355.073 286.597 355.043 286.7L355.038 286.42C355.041 286.383 355.053 286.328 355.073 286.255C355.093 286.178 355.123 286.095 355.163 286.005C355.206 285.915 355.263 285.828 355.333 285.745C355.406 285.658 355.495 285.588 355.598 285.535C355.705 285.482 355.83 285.455 355.973 285.455V285.985ZM356.155 288.73L356.055 288.585C356.108 288.505 356.156 288.418 356.2 288.325C356.246 288.235 356.271 288.145 356.275 288.055L356.01 288V287.46H356.695V287.845C356.695 288.072 356.643 288.253 356.54 288.39C356.44 288.53 356.311 288.643 356.155 288.73ZM359.541 284.5L359.901 284.56L359.776 285.255L359.416 285.195L359.541 284.5ZM358.871 288.295L358.991 287.6L359.351 287.66L359.231 288.355L358.871 288.295ZM358.256 286.855H358.771C358.797 286.978 358.864 287.08 358.971 287.16C359.081 287.237 359.229 287.275 359.416 287.275C359.536 287.275 359.629 287.263 359.696 287.24C359.766 287.213 359.814 287.177 359.841 287.13C359.871 287.083 359.886 287.03 359.886 286.97C359.886 286.897 359.864 286.84 359.821 286.8C359.781 286.76 359.719 286.727 359.636 286.7C359.556 286.673 359.457 286.648 359.341 286.625C359.217 286.598 359.096 286.567 358.976 286.53C358.856 286.493 358.747 286.448 358.651 286.395C358.554 286.338 358.477 286.267 358.421 286.18C358.364 286.093 358.336 285.99 358.336 285.87C358.336 285.757 358.361 285.655 358.411 285.565C358.464 285.472 358.537 285.393 358.631 285.33C358.727 285.263 358.839 285.213 358.966 285.18C359.092 285.147 359.231 285.13 359.381 285.13C359.597 285.13 359.777 285.165 359.921 285.235C360.067 285.305 360.177 285.403 360.251 285.53C360.324 285.653 360.362 285.797 360.366 285.96H359.876C359.849 285.83 359.797 285.735 359.721 285.675C359.644 285.612 359.529 285.58 359.376 285.58C359.222 285.58 359.106 285.608 359.026 285.665C358.946 285.718 358.906 285.792 358.906 285.885C358.906 285.952 358.931 286.007 358.981 286.05C359.034 286.093 359.109 286.13 359.206 286.16C359.302 286.187 359.416 286.217 359.546 286.25C359.666 286.28 359.779 286.313 359.886 286.35C359.996 286.387 360.092 286.432 360.176 286.485C360.262 286.535 360.331 286.602 360.381 286.685C360.431 286.765 360.456 286.868 360.456 286.995C360.456 287.148 360.414 287.28 360.331 287.39C360.247 287.5 360.129 287.585 359.976 287.645C359.822 287.702 359.637 287.73 359.421 287.73C359.181 287.73 358.982 287.697 358.826 287.63C358.672 287.563 358.552 287.482 358.466 287.385C358.379 287.285 358.319 287.187 358.286 287.09C358.256 286.993 358.246 286.915 358.256 286.855ZM361.249 284H362.499V284.47H361.779C361.779 284.563 361.794 284.663 361.824 284.77C361.857 284.873 361.894 284.982 361.934 285.095C361.977 285.205 362.015 285.315 362.049 285.425C362.082 285.535 362.099 285.642 362.099 285.745C362.099 285.888 362.062 286.012 361.989 286.115C361.915 286.218 361.812 286.3 361.679 286.36C361.545 286.42 361.389 286.46 361.209 286.48V286.41C361.389 286.43 361.545 286.47 361.679 286.53C361.812 286.59 361.915 286.672 361.989 286.775C362.062 286.875 362.099 286.998 362.099 287.145C362.099 287.248 362.082 287.355 362.049 287.465C362.015 287.575 361.977 287.687 361.934 287.8C361.894 287.91 361.857 288.017 361.824 288.12C361.794 288.227 361.779 288.327 361.779 288.42H362.499V288.89H361.249C361.222 288.733 361.225 288.572 361.259 288.405C361.292 288.238 361.337 288.075 361.394 287.915C361.454 287.755 361.507 287.608 361.554 287.475C361.6 287.342 361.624 287.232 361.624 287.145C361.624 286.998 361.565 286.88 361.449 286.79C361.332 286.7 361.15 286.655 360.904 286.655V286.235C361.15 286.235 361.332 286.19 361.449 286.1C361.565 286.01 361.624 285.892 361.624 285.745C361.624 285.658 361.6 285.548 361.554 285.415C361.507 285.282 361.454 285.135 361.394 284.975C361.337 284.815 361.292 284.652 361.259 284.485C361.225 284.315 361.222 284.153 361.249 284ZM363.248 285.51H363.803V288H363.248V285.51ZM364.853 285.455C364.997 285.455 365.128 285.475 365.248 285.515C365.372 285.555 365.477 285.617 365.563 285.7C365.653 285.78 365.722 285.88 365.768 286C365.818 286.12 365.843 286.262 365.843 286.425V288H365.288V286.535C365.288 286.332 365.238 286.182 365.138 286.085C365.042 285.985 364.888 285.935 364.678 285.935C364.518 285.935 364.372 285.97 364.238 286.04C364.108 286.107 364.002 286.195 363.918 286.305C363.835 286.412 363.787 286.53 363.773 286.66L363.768 286.39C363.785 286.267 363.822 286.15 363.878 286.04C363.935 285.927 364.01 285.827 364.103 285.74C364.197 285.65 364.307 285.58 364.433 285.53C364.56 285.48 364.7 285.455 364.853 285.455ZM367.781 288.055C367.505 288.055 367.256 288.005 367.036 287.905C366.816 287.805 366.643 287.658 366.516 287.465C366.39 287.272 366.326 287.037 366.326 286.76C366.326 286.487 366.39 286.253 366.516 286.06C366.643 285.863 366.816 285.713 367.036 285.61C367.256 285.507 367.505 285.455 367.781 285.455C368.058 285.455 368.305 285.507 368.521 285.61C368.738 285.713 368.908 285.863 369.031 286.06C369.158 286.253 369.221 286.487 369.221 286.76C369.221 287.037 369.158 287.272 369.031 287.465C368.908 287.658 368.738 287.805 368.521 287.905C368.305 288.005 368.058 288.055 367.781 288.055ZM367.781 287.6C367.941 287.6 368.088 287.568 368.221 287.505C368.355 287.442 368.46 287.347 368.536 287.22C368.616 287.093 368.656 286.94 368.656 286.76C368.656 286.58 368.616 286.427 368.536 286.3C368.46 286.173 368.355 286.077 368.221 286.01C368.091 285.94 367.945 285.905 367.781 285.905C367.618 285.905 367.47 285.938 367.336 286.005C367.203 286.072 367.095 286.168 367.011 286.295C366.931 286.422 366.891 286.577 366.891 286.76C366.891 286.94 366.931 287.093 367.011 287.22C367.091 287.347 367.198 287.442 367.331 287.505C367.468 287.568 367.618 287.6 367.781 287.6ZM369.718 285.51H370.273V288H369.718V285.51ZM371.323 285.455C371.467 285.455 371.598 285.475 371.718 285.515C371.842 285.555 371.947 285.617 372.033 285.7C372.123 285.78 372.192 285.88 372.238 286C372.288 286.12 372.313 286.262 372.313 286.425V288H371.758V286.535C371.758 286.332 371.708 286.182 371.608 286.085C371.512 285.985 371.358 285.935 371.148 285.935C370.988 285.935 370.842 285.97 370.708 286.04C370.578 286.107 370.472 286.195 370.388 286.305C370.305 286.412 370.257 286.53 370.243 286.66L370.238 286.39C370.255 286.267 370.292 286.15 370.348 286.04C370.405 285.927 370.48 285.827 370.573 285.74C370.667 285.65 370.777 285.58 370.903 285.53C371.03 285.48 371.17 285.455 371.323 285.455ZM373.308 285.455C373.455 285.455 373.588 285.475 373.708 285.515C373.828 285.555 373.932 285.617 374.018 285.7C374.108 285.78 374.178 285.88 374.228 286C374.278 286.12 374.303 286.262 374.303 286.425V288H373.743V286.535C373.743 286.332 373.693 286.182 373.593 286.085C373.497 285.985 373.343 285.935 373.133 285.935C372.973 285.935 372.827 285.97 372.693 286.04C372.563 286.107 372.457 286.195 372.373 286.305C372.293 286.412 372.247 286.53 372.233 286.66L372.223 286.38C372.24 286.26 372.278 286.145 372.338 286.035C372.398 285.922 372.475 285.822 372.568 285.735C372.662 285.648 372.77 285.58 372.893 285.53C373.02 285.48 373.158 285.455 373.308 285.455ZM375.924 285.745C375.924 285.892 375.982 286.01 376.099 286.1C376.215 286.19 376.395 286.235 376.639 286.235V286.655C376.395 286.655 376.215 286.7 376.099 286.79C375.982 286.88 375.924 286.998 375.924 287.145C375.924 287.232 375.947 287.342 375.994 287.475C376.044 287.608 376.097 287.755 376.154 287.915C376.21 288.075 376.255 288.238 376.289 288.405C376.322 288.572 376.325 288.733 376.299 288.89H375.049V288.42H375.769C375.769 288.327 375.752 288.227 375.719 288.12C375.685 288.017 375.647 287.91 375.604 287.8C375.564 287.687 375.527 287.575 375.494 287.465C375.464 287.355 375.449 287.248 375.449 287.145C375.449 286.998 375.485 286.875 375.559 286.775C375.632 286.672 375.735 286.59 375.869 286.53C376.002 286.47 376.159 286.43 376.339 286.41V286.48C376.159 286.46 376.002 286.42 375.869 286.36C375.735 286.3 375.632 286.218 375.559 286.115C375.485 286.012 375.449 285.888 375.449 285.745C375.449 285.642 375.464 285.535 375.494 285.425C375.527 285.315 375.564 285.205 375.604 285.095C375.647 284.982 375.685 284.873 375.719 284.77C375.752 284.663 375.769 284.563 375.769 284.47H375.049V284H376.299C376.325 284.153 376.322 284.315 376.289 284.485C376.255 284.652 376.21 284.815 376.154 284.975C376.097 285.135 376.044 285.282 375.994 285.415C375.947 285.548 375.924 285.658 375.924 285.745ZM377.343 284.615H377.903V286.99H377.343V284.615ZM377.958 287.46V288H377.288V287.46H377.958ZM379.689 284.995L378.849 284.2H379.584L380.209 284.995H379.689ZM380.967 288.445C380.967 288.445 380.989 288.42 381.032 288.37C381.075 288.32 381.129 288.243 381.192 288.14C381.255 288.037 381.317 287.91 381.377 287.76C381.44 287.61 381.494 287.437 381.537 287.24C381.58 287.04 381.602 286.817 381.602 286.57C381.602 286.267 381.569 286 381.502 285.77C381.439 285.537 381.365 285.342 381.282 285.185C381.202 285.025 381.129 284.905 381.062 284.825C380.999 284.745 380.967 284.705 380.967 284.705L381.307 284.445C381.307 284.445 381.332 284.475 381.382 284.535C381.435 284.595 381.5 284.685 381.577 284.805C381.654 284.922 381.729 285.065 381.802 285.235C381.879 285.405 381.942 285.602 381.992 285.825C382.045 286.048 382.072 286.297 382.072 286.57C382.072 286.84 382.045 287.088 381.992 287.315C381.942 287.538 381.879 287.737 381.802 287.91C381.725 288.08 381.649 288.225 381.572 288.345C381.499 288.465 381.435 288.555 381.382 288.615C381.332 288.675 381.307 288.705 381.307 288.705L380.967 288.445ZM383.313 285.58V286.12H382.648V285.58H383.313ZM382.788 288.69L382.688 288.545C382.741 288.465 382.79 288.378 382.833 288.285C382.88 288.195 382.905 288.105 382.908 288.015L382.643 287.96V287.42H383.328V287.805C383.328 288.032 383.276 288.213 383.173 288.35C383.073 288.49 382.945 288.603 382.788 288.69Z" fill="black"/>
<path d="M353.99 263.035C353.97 263.248 353.902 263.432 353.785 263.585C353.668 263.738 353.512 263.855 353.315 263.935C353.122 264.015 352.898 264.055 352.645 264.055C352.372 264.055 352.123 264.005 351.9 263.905C351.68 263.805 351.505 263.658 351.375 263.465C351.245 263.272 351.18 263.037 351.18 262.76C351.18 262.483 351.245 262.248 351.375 262.055C351.505 261.862 351.68 261.713 351.9 261.61C352.123 261.507 352.372 261.455 352.645 261.455C352.898 261.455 353.122 261.497 353.315 261.58C353.508 261.66 353.663 261.775 353.78 261.925C353.897 262.075 353.965 262.257 353.985 262.47H353.475C353.418 262.293 353.315 262.157 353.165 262.06C353.018 261.96 352.845 261.91 352.645 261.91C352.482 261.91 352.332 261.943 352.195 262.01C352.058 262.073 351.948 262.168 351.865 262.295C351.785 262.418 351.745 262.573 351.745 262.76C351.745 262.943 351.785 263.098 351.865 263.225C351.948 263.352 352.058 263.447 352.195 263.51C352.332 263.57 352.482 263.6 352.645 263.6C352.865 263.6 353.045 263.552 353.185 263.455C353.328 263.355 353.427 263.215 353.48 263.035H353.99ZM355.804 264.055C355.527 264.055 355.279 264.005 355.059 263.905C354.839 263.805 354.666 263.658 354.539 263.465C354.412 263.272 354.349 263.037 354.349 262.76C354.349 262.487 354.412 262.253 354.539 262.06C354.666 261.863 354.839 261.713 355.059 261.61C355.279 261.507 355.527 261.455 355.804 261.455C356.081 261.455 356.327 261.507 356.544 261.61C356.761 261.713 356.931 261.863 357.054 262.06C357.181 262.253 357.244 262.487 357.244 262.76C357.244 263.037 357.181 263.272 357.054 263.465C356.931 263.658 356.761 263.805 356.544 263.905C356.327 264.005 356.081 264.055 355.804 264.055ZM355.804 263.6C355.964 263.6 356.111 263.568 356.244 263.505C356.377 263.442 356.482 263.347 356.559 263.22C356.639 263.093 356.679 262.94 356.679 262.76C356.679 262.58 356.639 262.427 356.559 262.3C356.482 262.173 356.377 262.077 356.244 262.01C356.114 261.94 355.967 261.905 355.804 261.905C355.641 261.905 355.492 261.938 355.359 262.005C355.226 262.072 355.117 262.168 355.034 262.295C354.954 262.422 354.914 262.577 354.914 262.76C354.914 262.94 354.954 263.093 355.034 263.22C355.114 263.347 355.221 263.442 355.354 263.505C355.491 263.568 355.641 263.6 355.804 263.6ZM357.741 261.51H358.296V264H357.741V261.51ZM359.346 261.455C359.489 261.455 359.621 261.475 359.741 261.515C359.864 261.555 359.969 261.617 360.056 261.7C360.146 261.78 360.214 261.88 360.261 262C360.311 262.12 360.336 262.262 360.336 262.425V264H359.781V262.535C359.781 262.332 359.731 262.182 359.631 262.085C359.534 261.985 359.381 261.935 359.171 261.935C359.011 261.935 358.864 261.97 358.731 262.04C358.601 262.107 358.494 262.195 358.411 262.305C358.327 262.412 358.279 262.53 358.266 262.66L358.261 262.39C358.277 262.267 358.314 262.15 358.371 262.04C358.427 261.927 358.502 261.827 358.596 261.74C358.689 261.65 358.799 261.58 358.926 261.53C359.052 261.48 359.192 261.455 359.346 261.455ZM360.839 263.18H361.354C361.38 263.307 361.449 263.41 361.559 263.49C361.669 263.567 361.817 263.605 362.004 263.605C362.124 263.605 362.217 263.592 362.284 263.565C362.354 263.538 362.402 263.502 362.429 263.455C362.459 263.408 362.474 263.355 362.474 263.295C362.474 263.222 362.452 263.165 362.409 263.125C362.369 263.085 362.309 263.052 362.229 263.025C362.149 262.998 362.049 262.975 361.929 262.955C361.805 262.925 361.684 262.892 361.564 262.855C361.444 262.818 361.335 262.773 361.239 262.72C361.142 262.663 361.065 262.593 361.009 262.51C360.955 262.423 360.929 262.318 360.929 262.195C360.929 262.082 360.954 261.98 361.004 261.89C361.057 261.797 361.13 261.718 361.224 261.655C361.317 261.592 361.427 261.543 361.554 261.51C361.68 261.473 361.819 261.455 361.969 261.455C362.185 261.455 362.365 261.49 362.509 261.56C362.655 261.63 362.765 261.728 362.839 261.855C362.915 261.982 362.954 262.127 362.954 262.29H362.464C362.437 262.157 362.385 262.06 362.309 262C362.232 261.94 362.117 261.91 361.964 261.91C361.81 261.91 361.694 261.937 361.614 261.99C361.534 262.043 361.494 262.117 361.494 262.21C361.494 262.28 361.519 262.337 361.569 262.38C361.622 262.42 361.697 262.455 361.794 262.485C361.89 262.515 362.004 262.545 362.134 262.575C362.254 262.608 362.367 262.643 362.474 262.68C362.58 262.713 362.675 262.757 362.759 262.81C362.845 262.86 362.914 262.927 362.964 263.01C363.014 263.093 363.039 263.197 363.039 263.32C363.039 263.473 362.997 263.605 362.914 263.715C362.834 263.825 362.717 263.91 362.564 263.97C362.41 264.027 362.225 264.055 362.009 264.055C361.819 264.055 361.654 264.033 361.514 263.99C361.377 263.947 361.262 263.89 361.169 263.82C361.079 263.75 361.009 263.675 360.959 263.595C360.909 263.515 360.874 263.438 360.854 263.365C360.837 263.292 360.832 263.23 360.839 263.18ZM363.366 261.51H365.126V261.965H363.366V261.51ZM363.966 260.84H364.526V264H363.966V260.84Z" fill="#2D1A79"/>
</svg>
