<svg width="361" height="422" viewBox="0 0 361 422" fill="none" xmlns="http://www.w3.org/2000/svg">
<path d="M145 306.049V339.911C171.182 370.01 228.167 422 251.45 422C272.12 422 318.627 347.436 338.263 314.258L277.287 311.18L347.565 294.762L355.833 238.326L316.56 243.456L361 222.934L355.833 148.028L325.861 160.341L355.833 132.636L342.397 73.1217L325.861 88.5133L342.397 62.8605C333.785 40.286 316.56 -3.83682 316.56 0.267627C316.56 4.37208 307.603 36.1816 303.124 51.5733L310.359 88.5133L297.957 67.9911L287.622 100.827L297.957 160.341L277.287 125.453L257.651 166.498L272.12 232.169L244.215 187.02L211.144 232.169L230.78 311.18L196.675 251.665L145 306.049Z" fill="#2D1A79"/>
<path d="M1.63813 240.741C-7.96187 242.341 26.9715 266.741 45.6381 278.741L189.638 388.741L265.638 332.741C255.638 318.075 237.638 288.986 237.638 278.741C237.638 260.742 274.638 209.742 265.638 197.742C237.638 202.742 212.168 197.505 214.638 184.742C220.638 153.741 228.638 106.741 205.638 106.741C183.638 111.741 151.038 137.141 144.638 106.741C138.238 76.3415 117.305 73.0749 102.638 75.7415C84.6382 105.742 96.6382 146.741 78.6382 146.741C33.5161 146.741 49.6382 143.741 30.6382 153.741C15.0637 161.939 41.6382 192.741 55.6382 220.741C45.6381 226.741 11.2381 239.141 1.63813 240.741Z" fill="#ACF2AB"/>
</svg>
