<svg width="165" height="82" viewBox="0 0 165 82" fill="none" xmlns="http://www.w3.org/2000/svg">
<circle cx="108.171" cy="43.5" r="30.5" fill="#FF7A00"/>
<path d="M89.5269 39.2719V35.7109C91.2415 35.0184 92.995 34.4991 94.7875 34.1529C96.5801 33.8067 98.4635 33.6336 100.438 33.6336C101.789 33.6336 103.114 33.7325 104.413 33.9303C105.712 34.1282 106.985 34.3755 108.232 34.6722V37.9365C106.985 37.4914 105.725 37.1575 104.452 36.935C103.179 36.7124 101.841 36.6011 100.438 36.6011C98.4635 36.6011 96.5671 36.8361 94.7486 37.3059C92.9301 37.7758 91.1895 38.4311 89.5269 39.2719ZM89.5269 55.5936V51.9583C91.2415 51.2659 92.995 50.7589 94.7875 50.4374C96.5801 50.1159 98.4635 49.9552 100.438 49.9552C101.789 49.9552 103.114 50.0541 104.413 50.252C105.712 50.4498 106.985 50.6971 108.232 50.9939V54.2582C106.985 53.813 105.725 53.4792 104.452 53.2566C103.179 53.0341 101.841 52.9228 100.438 52.9228C98.4635 52.9228 96.5671 53.1453 94.7486 53.5905C92.9301 54.0356 91.1895 54.7033 89.5269 55.5936ZM89.5269 47.4328V43.8717C91.2415 43.1792 92.995 42.6599 94.7875 42.3137C96.5801 41.9675 98.4635 41.7944 100.438 41.7944C101.789 41.7944 103.114 41.8933 104.413 42.0911C105.712 42.289 106.985 42.5363 108.232 42.833V46.0974C106.985 45.6522 105.725 45.3184 104.452 45.0958C103.179 44.8732 101.841 44.762 100.438 44.762C98.4635 44.762 96.5671 44.9969 94.7486 45.4668C92.9301 45.9366 91.1895 46.592 89.5269 47.4328ZM65.2107 59.5998C68.0164 59.5998 70.7312 59.9089 73.3551 60.5272C75.9789 61.1454 78.5638 62.0728 81.1097 63.3093V31.6304C78.7717 30.1467 76.2387 28.9967 73.511 28.1806C70.7832 27.3646 68.0164 26.9565 65.2107 26.9565C63.2364 26.9565 61.3009 27.1915 59.4045 27.6613C57.508 28.1312 55.5986 28.7123 53.6762 29.4048V61.6029C55.2869 60.9105 57.1184 60.4035 59.1707 60.0821C61.223 59.7606 63.2364 59.5998 65.2107 59.5998ZM85.7859 63.3093C88.3838 62.0728 90.9297 61.1454 93.4237 60.5272C95.9176 59.9089 98.5675 59.5998 101.373 59.5998C103.348 59.5998 105.387 59.7482 107.491 60.045C109.595 60.3417 111.401 60.7374 112.908 61.232V29.4048C111.141 28.564 109.271 27.9457 107.296 27.55C105.322 27.1544 103.348 26.9565 101.373 26.9565C98.5675 26.9565 95.8527 27.3646 93.2288 28.1806C90.605 28.9967 88.124 30.1467 85.7859 31.6304V63.3093ZM83.4478 69.9863C80.798 68.1069 77.9143 66.6602 74.7969 65.6463C71.6794 64.6323 68.4841 64.1254 65.2107 64.1254C63.2883 64.1254 61.4178 64.3479 59.5993 64.7931C57.7808 65.2382 55.9623 65.7823 54.1438 66.4252C52.9488 66.9693 51.7927 66.8951 50.6756 66.2027C49.5585 65.5102 49 64.521 49 63.2351V28.8854C49 28.1435 49.1819 27.4635 49.5456 26.8452C49.9093 26.227 50.4548 25.7448 51.1822 25.3985C53.3644 24.4093 55.6376 23.6798 58.0016 23.21C60.3657 22.7401 62.7687 22.5052 65.2107 22.5052C68.4841 22.5052 71.6665 22.9256 74.7579 23.7664C77.8494 24.6072 80.746 25.8931 83.4478 27.6242C86.0977 25.8931 88.9423 24.6072 91.9818 23.7664C95.0214 22.9256 98.1518 22.5052 101.373 22.5052C103.815 22.5052 106.205 22.7401 108.543 23.21C110.881 23.6798 113.142 24.4093 115.324 25.3985C116.051 25.7448 116.61 26.227 116.999 26.8452C117.389 27.4635 117.584 28.1435 117.584 28.8854V63.2351C117.584 64.62 116.999 65.671 115.83 66.3881C114.661 67.1053 113.505 67.1177 112.362 66.4252C110.596 65.7328 108.803 65.1764 106.985 64.756C105.166 64.3356 103.296 64.1254 101.373 64.1254C98.0998 64.1254 94.9564 64.6447 91.9429 65.6833C88.9293 66.722 86.0977 68.1563 83.4478 69.9863Z" fill="#3A4649"/>
</svg>
