<svg width="146" height="20" viewBox="0 0 146 20" fill="none" xmlns="http://www.w3.org/2000/svg">
<g clip-path="url(#clip0_77_8)">
<path d="M17.078 6.95466L3.49329 0.239815L17.078 0V6.95466Z" fill="#03314B"/>
<path d="M17.0779 8.06253L10.6593 6.56836L0 9.2724L6.21796 12.5886L5.51593 19.3186L15.5879 13.84L17.0779 8.06253Z" fill="#03314B"/>
<path d="M25.9521 8.03707H22.4261L22.7544 6.25018L25.4738 6.25888C25.8865 6.25888 26.2803 6.20681 26.6554 6.10273C27.0368 5.99285 27.3556 5.81646 27.6119 5.5736C27.8745 5.32493 28.0402 4.99243 28.1089 4.57606C28.1652 4.18283 28.1277 3.87343 27.9964 3.64792C27.8651 3.42238 27.6557 3.26046 27.3681 3.16217C27.0868 3.05806 26.7523 3.00313 26.3647 2.99732L24.3392 2.98866L22.3511 13.5799H19.6035L21.9667 0.950216L26.4491 0.958892C27.0368 0.964673 27.6057 1.02827 28.1558 1.14974C28.7059 1.27117 29.1936 1.46199 29.6187 1.72221C30.0438 1.98247 30.372 2.32655 30.6033 2.75446C30.8409 3.18237 30.9378 3.70862 30.8941 4.33317C30.8503 5.01556 30.6377 5.57649 30.2564 6.01598C29.875 6.4497 29.3874 6.77643 28.7935 6.99616C28.2058 7.21592 27.5744 7.34313 26.8992 7.37784L25.9521 8.03707ZM24.8362 13.5799H20.5788L22.0229 11.5501L24.9206 11.5588C25.3332 11.5588 25.7177 11.4952 26.074 11.368C26.4366 11.235 26.7398 11.0384 26.9836 10.7782C27.2274 10.5179 27.3806 10.1854 27.4431 9.78062C27.4994 9.43942 27.4838 9.1416 27.3962 8.88715C27.3087 8.62694 27.1462 8.42742 26.9086 8.28863C26.6773 8.14407 26.3678 8.06312 25.9802 8.04577L23.2045 8.03707L23.5515 6.25018L26.7398 6.25888L27.2087 6.95282C27.8214 6.98172 28.3527 7.11181 28.8029 7.34313C29.2593 7.56867 29.6062 7.88962 29.8438 8.30598C30.0813 8.72235 30.1782 9.22258 30.1345 9.80664C30.072 10.7088 29.7875 11.4374 29.2811 11.9925C28.7747 12.5477 28.1277 12.9525 27.34 13.2069C26.5585 13.4614 25.7239 13.5857 24.8362 13.5799ZM43.61 6.92676L43.5348 7.53399C43.41 8.34359 43.1755 9.12424 42.8318 9.87603C42.4877 10.6278 42.0376 11.2986 41.4814 11.8885C40.9249 12.4725 40.2623 12.9351 39.4932 13.2763C38.7305 13.6117 37.8647 13.7708 36.8957 13.7534C35.9704 13.7361 35.1858 13.551 34.5419 13.1983C33.9042 12.8397 33.3978 12.3656 33.0227 11.7757C32.6539 11.1858 32.4069 10.5295 32.2819 9.80664C32.1569 9.07798 32.1444 8.332 32.2444 7.56867L32.3194 6.97014C32.4445 6.16054 32.6789 5.38277 33.0227 4.63676C33.3728 3.89078 33.8261 3.22575 34.3825 2.64169C34.9451 2.05186 35.6078 1.58923 36.3705 1.25381C37.1395 0.91841 38.0022 0.759385 38.9587 0.776731C39.8839 0.788297 40.6652 0.973348 41.303 1.33187C41.9472 1.68465 42.4533 2.15593 42.8222 2.7458C43.1975 3.32986 43.4476 3.9862 43.5724 4.71485C43.6976 5.4377 43.71 6.17501 43.61 6.92676ZM40.7496 7.56867L40.8437 6.94412C40.8937 6.55089 40.9185 6.12586 40.9185 5.66901C40.9249 5.20638 40.8685 4.764 40.7496 4.34186C40.6312 3.91392 40.4184 3.56406 40.1123 3.29226C39.8121 3.01468 39.3776 2.86434 38.8086 2.84121C38.196 2.82386 37.6709 2.93663 37.2332 3.17949C36.8019 3.42238 36.4393 3.752 36.1455 4.16836C35.8579 4.57895 35.6297 5.02999 35.4609 5.52156C35.2984 6.00732 35.1796 6.48438 35.1045 6.95282L35.0202 7.57733C34.9639 7.96479 34.9326 8.39274 34.9264 8.86114C34.9264 9.32376 34.9858 9.76903 35.1045 10.197C35.2233 10.6191 35.4359 10.969 35.7422 11.2466C36.0486 11.5241 36.4862 11.6745 37.0551 11.6976C37.6615 11.715 38.1804 11.5993 38.6118 11.3507C39.0494 11.102 39.4151 10.7724 39.7089 10.3618C40.0027 9.94542 40.2339 9.49434 40.4028 9.00859C40.5716 8.51705 40.6872 8.03707 40.7496 7.56867ZM56.457 6.92676L56.3822 7.53399C56.257 8.34359 56.0225 9.12424 55.6788 9.87603C55.3351 10.6278 54.885 11.2986 54.3285 11.8885C53.7719 12.4725 53.1093 12.9351 52.3403 13.2763C51.5777 13.6117 50.7119 13.7708 49.7429 13.7534C48.8174 13.7361 48.0332 13.551 47.389 13.1983C46.7513 12.8397 46.2451 12.3656 45.8698 11.7757C45.5009 11.1858 45.2541 10.5295 45.1292 9.80664C45.004 9.07798 44.9916 8.332 45.0916 7.56867L45.1664 6.97014C45.2917 6.16054 45.5261 5.38277 45.8698 4.63676C46.2199 3.89078 46.6732 3.22575 47.2298 2.64169C47.7923 2.05186 48.4549 1.58923 49.2175 1.25381C49.9865 0.91841 50.8495 0.759385 51.8058 0.776731C52.7312 0.788297 53.5127 0.973348 54.1504 1.33187C54.7942 1.68465 55.3007 2.15593 55.6692 2.7458C56.0445 3.32986 56.2946 3.9862 56.4194 4.71485C56.5447 5.4377 56.5571 6.17501 56.457 6.92676ZM53.5971 7.56867L53.6907 6.94412C53.7407 6.55089 53.7659 6.12586 53.7659 5.66901C53.7719 5.20638 53.7159 4.764 53.5971 4.34186C53.4782 3.91392 53.2658 3.56406 52.9593 3.29226C52.6592 3.01468 52.2247 2.86434 51.6558 2.84121C51.0432 2.82386 50.5179 2.93663 50.0805 3.17949C49.6492 3.42238 49.2863 3.752 48.9927 4.16836C48.705 4.57895 48.4769 5.02999 48.3081 5.52156C48.1456 6.00732 48.0268 6.48438 47.9516 6.95282L47.8671 7.57733C47.8111 7.96479 47.7799 8.39274 47.7735 8.86114C47.7735 9.32376 47.8331 9.76903 47.9516 10.197C48.0704 10.6191 48.2833 10.969 48.5893 11.2466C48.8958 11.5241 49.3335 11.6745 49.9021 11.6976C50.5087 11.715 51.0276 11.5993 51.4589 11.3507C51.8966 11.102 52.2623 10.7724 52.556 10.3618C52.8501 9.94542 53.0813 9.49434 53.2502 9.00859C53.4186 8.51705 53.5347 8.03707 53.5971 7.56867ZM62.3086 0.950216L59.9364 13.5799H57.1884L59.5519 0.950216H62.3086ZM70.336 0.950216L63.8654 7.23906L60.208 10.3618L60.1892 7.70746L62.6931 5.08784L66.7818 0.950216H70.336ZM64.8313 13.5799L61.9805 7.64676L64.1935 6.11139L67.9445 13.5799H64.8313ZM72.6898 11.4547L77.069 0.950216H78.5317L78.6254 2.82386L74.0117 13.5799H72.4177L72.6898 11.4547ZM73.1115 0.950216L73.5056 11.6889L73.0367 13.5799H71.2454L70.4392 0.950216H73.1115ZM79.46 11.4201L83.3706 0.950216H86.1462L81.0732 13.5799H79.3008L79.46 11.4201ZM79.3944 0.950216L80.2666 11.741L79.9101 13.5799H78.3069L77.3034 2.60701L77.894 0.950216H79.3944ZM92.2698 3.24022L86.7747 13.5799H83.7551L91.0507 0.950216H92.9824L92.2698 3.24022ZM93.3577 13.5799L91.6885 2.9713L91.7917 0.950216H93.6014L96.1801 13.5799H93.3577ZM94.0515 8.87849L93.667 10.9169H86.6435L87.0276 8.87849H94.0515ZM99.8186 0.950216L104.63 0.958892C105.461 0.970457 106.214 1.11214 106.889 1.38394C107.571 1.6557 108.099 2.06341 108.474 2.60701C108.855 3.15058 109.015 3.84163 108.952 4.68014C108.89 5.3683 108.709 5.94947 108.409 6.42369C108.115 6.89786 107.718 7.29975 107.217 7.6294C106.724 7.95901 106.155 8.24236 105.511 8.47949L104.554 8.90451H100.11L100.484 6.87473L103.542 6.89209C103.998 6.88631 104.414 6.80533 104.789 6.64919C105.164 6.49308 105.473 6.26754 105.717 5.9726C105.967 5.6719 106.124 5.30757 106.186 4.87966C106.242 4.50378 106.214 4.17706 106.102 3.89948C105.995 3.62191 105.811 3.40503 105.549 3.24888C105.286 3.09277 104.951 3.00891 104.545 2.99732L102.191 2.98866L100.203 13.5799H97.4556L99.8186 0.950216ZM104.93 13.5799L102.96 7.95035L105.727 7.933L107.855 13.4411V13.5799H104.93ZM113.632 13.5799H110.594L110.987 11.5501L113.716 11.5675C114.567 11.5675 115.282 11.3825 115.864 11.0124C116.445 10.6365 116.902 10.1449 117.233 9.53772C117.57 8.92476 117.799 8.26261 117.917 7.55131L118.002 6.93546C118.058 6.49597 118.077 6.05066 118.058 5.59962C118.039 5.14276 117.949 4.72063 117.786 4.33317C117.63 3.94574 117.38 3.63057 117.036 3.38767C116.692 3.14481 116.226 3.01468 115.638 2.99732L112.525 2.98866L112.91 0.950216L115.723 0.958892C116.636 0.976238 117.43 1.14974 118.105 1.47935C118.78 1.80319 119.333 2.24268 119.765 2.79784C120.196 3.35299 120.496 3.98908 120.665 4.70615C120.834 5.41745 120.868 6.16635 120.768 6.95282L120.693 7.56867C120.568 8.41298 120.309 9.20233 119.915 9.93673C119.527 10.6712 119.024 11.3131 118.405 11.8624C117.792 12.406 117.083 12.8311 116.276 13.1375C115.47 13.4383 114.588 13.5857 113.632 13.5799ZM114.523 0.950216L112.15 13.5799H109.402L111.766 0.950216H114.523ZM130.811 11.5501L130.427 13.5799H123.366L123.741 11.5501H130.811ZM126.638 0.950216L124.266 13.5799H121.518L123.881 0.950216H126.638ZM130.915 6.09404L130.539 8.07178H124.397L124.772 6.09404H130.915ZM132.781 0.950216L132.396 2.98866H125.344L125.738 0.950216H132.781ZM145.168 0.950216L142.796 13.5799H140.133L136.354 5.01845L134.75 13.5799H132.002L134.365 0.950216H137.038L140.826 9.52036L142.43 0.950216H145.168Z" fill="#03314B"/>
</g>
<defs>
<clipPath id="clip0_77_8">
<rect width="146" height="20" fill="white"/>
</clipPath>
</defs>
</svg>
