<svg width="90" height="61" viewBox="0 0 90 61" fill="none" xmlns="http://www.w3.org/2000/svg">
<circle cx="59.1711" cy="30.5" r="30.5" fill="#FF7A00"/>
<path d="M40.5269 26.2719V22.7109C42.2414 22.0184 43.995 21.4991 45.7875 21.1529C47.5801 20.8067 49.4635 20.6336 51.4379 20.6336C52.7888 20.6336 54.1137 20.7325 55.4127 20.9303C56.7116 21.1282 57.9846 21.3755 59.2316 21.6722V24.9365C57.9846 24.4914 56.7246 24.1575 55.4516 23.935C54.1787 23.7124 52.8408 23.6011 51.4379 23.6011C49.4635 23.6011 47.5671 23.8361 45.7486 24.3059C43.9301 24.7758 42.1895 25.4311 40.5269 26.2719ZM40.5269 42.5936V38.9583C42.2414 38.2659 43.995 37.7589 45.7875 37.4374C47.5801 37.116 49.4635 36.9552 51.4379 36.9552C52.7888 36.9552 54.1137 37.0541 55.4127 37.252C56.7116 37.4498 57.9846 37.6971 59.2316 37.9939V41.2582C57.9846 40.8131 56.7246 40.4792 55.4516 40.2566C54.1787 40.0341 52.8408 39.9228 51.4379 39.9228C49.4635 39.9228 47.5671 40.1453 45.7486 40.5905C43.9301 41.0356 42.1895 41.7033 40.5269 42.5936ZM40.5269 34.4328V30.8717C42.2414 30.1792 43.995 29.6599 45.7875 29.3137C47.5801 28.9675 49.4635 28.7944 51.4379 28.7944C52.7888 28.7944 54.1137 28.8933 55.4127 29.0911C56.7116 29.289 57.9846 29.5363 59.2316 29.833V33.0974C57.9846 32.6522 56.7246 32.3184 55.4516 32.0958C54.1787 31.8732 52.8408 31.762 51.4379 31.762C49.4635 31.762 47.5671 31.9969 45.7486 32.4668C43.9301 32.9366 42.1895 33.592 40.5269 34.4328ZM16.2107 46.5998C19.0164 46.5998 21.7312 46.9089 24.3551 47.5272C26.9789 48.1454 29.5638 49.0728 32.1097 50.3093V18.6304C29.7717 17.1467 27.2387 15.9967 24.511 15.1806C21.7832 14.3646 19.0164 13.9565 16.2107 13.9565C14.2364 13.9565 12.3009 14.1915 10.4045 14.6613C8.50804 15.1312 6.5986 15.7123 4.67618 16.4048V48.6029C6.28686 47.9105 8.11836 47.4035 10.1707 47.0821C12.223 46.7606 14.2364 46.5998 16.2107 46.5998ZM36.7859 50.3093C39.3838 49.0728 41.9297 48.1454 44.4237 47.5272C46.9176 46.9089 49.5675 46.5998 52.3732 46.5998C54.3475 46.5998 56.3869 46.7482 58.4912 47.045C60.5954 47.3417 62.401 47.7374 63.9077 48.232V16.4048C62.1412 15.564 60.2707 14.9457 58.2963 14.55C56.3219 14.1544 54.3475 13.9565 52.3732 13.9565C49.5675 13.9565 46.8527 14.3646 44.2288 15.1806C41.605 15.9967 39.124 17.1467 36.7859 18.6304V50.3093ZM34.4478 56.9863C31.798 55.1069 28.9143 53.6602 25.7969 52.6463C22.6794 51.6323 19.4841 51.1254 16.2107 51.1254C14.2883 51.1254 12.4178 51.3479 10.5993 51.7931C8.78082 52.2382 6.96231 52.7823 5.14379 53.4252C3.94877 53.9693 2.79272 53.8951 1.67563 53.2027C0.558543 52.5102 0 51.521 0 50.2351V15.8854C0 15.1435 0.181851 14.4635 0.545554 13.8452C0.909256 13.227 1.45481 12.7448 2.18222 12.3985C4.36443 11.4093 6.63757 10.6798 9.00164 10.21C11.3657 9.74009 13.7687 9.50516 16.2107 9.50516C19.4841 9.50516 22.6665 9.92556 25.7579 10.7664C28.8494 11.6072 31.746 12.8931 34.4478 14.6242C37.0977 12.8931 39.9423 11.6072 42.9818 10.7664C46.0214 9.92556 49.1518 9.50516 52.3732 9.50516C54.8152 9.50516 57.2052 9.74009 59.5433 10.21C61.8814 10.6798 64.1415 11.4093 66.3237 12.3985C67.0512 12.7448 67.6097 13.227 67.9994 13.8452C68.3891 14.4635 68.5839 15.1435 68.5839 15.8854V50.2351C68.5839 51.62 67.9994 52.671 66.8303 53.3881C65.6613 54.1053 64.5052 54.1177 63.3622 53.4252C61.5956 52.7328 59.8031 52.1764 57.9846 51.756C56.1661 51.3356 54.2956 51.1254 52.3732 51.1254C49.0998 51.1254 45.9564 51.6447 42.9429 52.6833C39.9293 53.722 37.0977 55.1563 34.4478 56.9863Z" fill="#3A4649"/>
</svg>
