<svg width="74" height="61" viewBox="0 0 74 61" fill="none" xmlns="http://www.w3.org/2000/svg">
<circle cx="43.5" cy="30.5" r="30.5" fill="#FF7A00"/>
<path d="M19.326 39.2207C20.2322 40.0365 21.5423 40.4178 23.2562 40.3646C24.9701 40.3114 26.2211 39.735 27.0091 38.6354L39.7749 20.5978L19.9761 32.2504C18.7941 32.9598 18.1637 34.0949 18.0849 35.6557C18.0061 37.2165 18.4198 38.4048 19.326 39.2207ZM23.5222 14C25.768 14 28.1123 14.3281 30.5552 14.9844C32.998 15.6406 35.3423 16.7668 37.5882 18.3631L34.5149 20.3318C32.7419 19.2676 30.8408 18.4784 28.8117 17.964C26.7826 17.4497 25.0194 17.1925 23.5222 17.1925C18.0061 17.1925 13.2977 18.9661 9.39705 22.5133C5.49639 26.0605 3.54605 30.3704 3.54605 35.4429C3.54605 37.0391 3.79231 38.6531 4.28482 40.2848C4.77732 41.9165 5.47668 43.4241 6.3829 44.8075H40.6023C41.4691 43.5305 42.1586 42.0407 42.6709 40.338C43.1831 38.6354 43.4392 36.9682 43.4392 35.3365C43.4392 33.8466 43.1929 32.2415 42.7004 30.5211C42.2079 28.8007 41.3312 27.2134 40.0704 25.759L42.3754 22.9922C43.8726 24.9786 44.9955 26.9739 45.7441 28.9781C46.4927 30.9823 46.9064 32.9953 46.9852 35.0172C47.064 37.1455 46.8276 39.1497 46.276 41.0297C45.7244 42.9098 44.9167 44.6479 43.8529 46.2441C43.3801 47.06 42.8777 47.5566 42.3458 47.734C41.8139 47.9113 41.1539 48 40.3659 48H6.6193C5.94949 48 5.28953 47.8492 4.63942 47.5477C3.98931 47.2462 3.50665 46.8117 3.19145 46.2441C2.16703 44.5415 1.37902 42.8122 0.827413 41.0563C0.275804 39.3005 0 37.4293 0 35.4429C0 32.4987 0.620559 29.723 1.86168 27.1158C3.1028 24.5086 4.78717 22.2384 6.91481 20.3052C9.04244 18.3719 11.5345 16.8378 14.3911 15.7027C17.2476 14.5676 20.2913 14 23.5222 14Z" fill="#3A4649"/>
</svg>
