<svg width="165" height="82" viewBox="0 0 165 82" fill="none" xmlns="http://www.w3.org/2000/svg">
<circle cx="82.5" cy="40.5" r="30.5" fill="#FF7A00"/>
<path d="M58.326 49.2207C59.2322 50.0365 60.5423 50.4178 62.2562 50.3646C63.9701 50.3114 65.2211 49.735 66.0091 48.6354L78.7749 30.5978L58.9761 42.2504C57.7941 42.9598 57.1637 44.0949 57.0849 45.6557C57.0061 47.2165 57.4198 48.4048 58.326 49.2207ZM62.5222 24C64.768 24 67.1123 24.3281 69.5552 24.9844C71.998 25.6406 74.3423 26.7668 76.5882 28.3631L73.5149 30.3318C71.7419 29.2676 69.8408 28.4784 67.8117 27.964C65.7826 27.4497 64.0194 27.1925 62.5222 27.1925C57.0061 27.1925 52.2977 28.9661 48.397 32.5133C44.4964 36.0605 42.5461 40.3704 42.5461 45.4429C42.5461 47.0391 42.7923 48.6531 43.2848 50.2848C43.7773 51.9165 44.4767 53.4241 45.3829 54.8075H79.6023C80.4691 53.5305 81.1586 52.0407 81.6709 50.338C82.1831 48.6354 82.4392 46.9682 82.4392 45.3365C82.4392 43.8466 82.1929 42.2415 81.7004 40.5211C81.2079 38.8007 80.3312 37.2134 79.0704 35.759L81.3754 32.9922C82.8726 34.9786 83.9955 36.9739 84.7441 38.9781C85.4927 40.9823 85.9064 42.9953 85.9852 45.0172C86.064 47.1455 85.8276 49.1497 85.276 51.0297C84.7244 52.9098 83.9167 54.6479 82.8529 56.2441C82.3801 57.06 81.8777 57.5566 81.3458 57.734C80.8139 57.9113 80.1539 58 79.3659 58H45.6193C44.9495 58 44.2895 57.8492 43.6394 57.5477C42.9893 57.2462 42.5067 56.8117 42.1914 56.2441C41.167 54.5415 40.379 52.8122 39.8274 51.0563C39.2758 49.3005 39 47.4293 39 45.4429C39 42.4987 39.6206 39.723 40.8617 37.1158C42.1028 34.5086 43.7872 32.2384 45.9148 30.3052C48.0424 28.3719 50.5345 26.8378 53.3911 25.7027C56.2476 24.5676 59.2913 24 62.5222 24Z" fill="#3A4649"/>
</svg>
