<svg width="76" height="61" viewBox="0 0 76 61" fill="none" xmlns="http://www.w3.org/2000/svg">
<path d="M76 30.5C76 47.3446 62.3447 60.9999 45.5 60.9999C28.6553 60.9999 15 47.3446 15 30.5C15 13.6553 28.6553 -6.39623e-07 45.5 -6.39623e-07C62.3447 -6.39623e-07 76 13.6553 76 30.5Z" fill="#FF7A00"/>
<path d="M18.3 56.8344C16.9173 56.8344 15.7482 56.3782 14.7925 55.4658C13.8368 54.5534 13.359 53.4372 13.359 52.1171H23.241C23.241 53.4372 22.7631 54.5534 21.8075 55.4658C20.8518 56.3782 19.6826 56.8344 18.3 56.8344ZM8.41799 48.5064V45.0122H28.182V48.5064H8.41799ZM8.72299 41.4597C6.03899 39.7902 3.91416 37.7034 2.3485 35.1992C0.782833 32.695 0 29.8704 0 26.7256C0 21.989 1.80966 17.893 5.42899 14.4375C9.04832 10.9821 13.3387 9.25441 18.3 9.25441C23.2613 9.25441 27.5516 10.9821 31.171 14.4375C34.7903 17.893 36.6 21.989 36.6 26.7256C36.6 29.8704 35.8273 32.695 34.282 35.1992C32.7366 37.7034 30.6016 39.7902 27.877 41.4597H8.72299ZM10.065 37.9654H26.596C28.548 36.723 30.0933 35.1118 31.232 33.1317C32.3706 31.1517 32.94 29.0163 32.94 26.7256C32.94 22.882 31.5065 19.5915 28.6395 16.8544C25.7725 14.1172 22.326 12.7487 18.3 12.7487C14.274 12.7487 10.8275 14.1172 7.96049 16.8544C5.09349 19.5915 3.66 22.882 3.66 26.7256C3.66 29.0163 4.22933 31.1517 5.36799 33.1317C6.50666 35.1118 8.07233 36.723 10.065 37.9654Z" fill="#3A4649"/>
</svg>
