<svg width="165" height="82" viewBox="0 0 165 82" fill="none" xmlns="http://www.w3.org/2000/svg">
<path d="M120 42.5C120 59.3446 106.345 72.9999 89.5 72.9999C72.6553 72.9999 59 59.3446 59 42.5C59 25.6553 72.6553 12 89.5 12C106.345 12 120 25.6553 120 42.5Z" fill="#FF7A00"/>
<path d="M63.5 69C62.0267 69 60.7808 68.511 59.7625 67.5331C58.7442 66.5551 58.235 65.3586 58.235 63.9437H68.765C68.765 65.3586 68.2558 66.5551 67.2375 67.5331C66.2192 68.511 64.9733 69 63.5 69ZM52.97 60.0734V56.328H74.03V60.0734H52.97ZM53.295 52.5202C50.435 50.7307 48.1708 48.4939 46.5025 45.8097C44.8342 43.1255 44 40.0979 44 36.7271C44 31.6499 45.9283 27.2595 49.785 23.5557C53.6417 19.8519 58.2133 18 63.5 18C68.7867 18 73.3583 19.8519 77.215 23.5557C81.0717 27.2595 83 31.6499 83 36.7271C83 40.0979 82.1767 43.1255 80.53 45.8097C78.8833 48.4939 76.6083 50.7307 73.705 52.5202H53.295ZM54.725 48.7748H72.34C74.42 47.4431 76.0667 45.716 77.28 43.5936C78.4933 41.4712 79.1 39.1824 79.1 36.7271C79.1 32.6071 77.5725 29.0802 74.5175 26.1463C71.4625 23.2124 67.79 21.7454 63.5 21.7454C59.21 21.7454 55.5375 23.2124 52.4825 26.1463C49.4275 29.0802 47.9 32.6071 47.9 36.7271C47.9 39.1824 48.5067 41.4712 49.72 43.5936C50.9333 45.716 52.6017 47.4431 54.725 48.7748Z" fill="#3A4649"/>
</svg>
