<svg width="137" height="33" viewBox="0 0 137 33" fill="none" xmlns="http://www.w3.org/2000/svg">
<path d="M15.0323 9.06593L3.07471 2.76354L15.0323 2.53845V9.06593Z" fill="black"/>
<path d="M15.0324 10.1056L9.38265 8.70325L0 11.2412L5.47322 14.3537L4.85527 20.6703L13.7209 15.5282L15.0324 10.1056Z" fill="black"/>
<path d="M22.8438 10.0818H19.7402L20.0291 8.40469L22.4228 8.41285C22.786 8.41285 23.1327 8.36397 23.4629 8.26629C23.7986 8.16316 24.0792 7.9976 24.3048 7.76966C24.5359 7.53626 24.6818 7.22419 24.7423 6.8334C24.7918 6.46432 24.7588 6.17392 24.6433 5.96227C24.5277 5.75058 24.3433 5.59861 24.0902 5.50635C23.8426 5.40863 23.5482 5.35708 23.207 5.35163L21.4241 5.3435L19.6741 15.2842H17.2556L19.3357 3.43027L23.2813 3.43841C23.7986 3.44383 24.2993 3.50353 24.7836 3.61753C25.2678 3.7315 25.6971 3.91061 26.0713 4.15484C26.4455 4.39911 26.7344 4.72206 26.938 5.12369C27.1471 5.52531 27.2324 6.01924 27.1939 6.60542C27.1553 7.2459 26.9682 7.77237 26.6325 8.18487C26.2969 8.59195 25.8677 8.89861 25.3449 9.10484C24.8276 9.31111 24.2718 9.4305 23.6775 9.46308L22.8438 10.0818ZM21.8616 15.2842H18.1141L19.3852 13.3791L21.9358 13.3873C22.299 13.3873 22.6375 13.3276 22.9511 13.2081C23.2703 13.0833 23.5372 12.8988 23.7518 12.6545C23.9664 12.4103 24.1012 12.0982 24.1563 11.7183C24.2058 11.398 24.192 11.1185 24.115 10.8797C24.038 10.6355 23.8949 10.4482 23.6858 10.3179C23.4821 10.1822 23.2098 10.1063 22.8686 10.09L20.4253 10.0818L20.7307 8.40469L23.5372 8.41285L23.9499 9.06416C24.4892 9.09129 24.9569 9.21339 25.3531 9.4305C25.7549 9.64219 26.0602 9.94342 26.2694 10.3342C26.4785 10.725 26.5638 11.1945 26.5253 11.7427C26.4702 12.5894 26.2199 13.2733 25.7741 13.7943C25.3284 14.3154 24.7588 14.6953 24.0655 14.9341C23.3776 15.1729 22.643 15.2896 21.8616 15.2842ZM38.3868 9.03971L38.3206 9.60964C38.2107 10.3695 38.0043 11.1022 37.7018 11.8078C37.3989 12.5134 37.0027 13.143 36.5132 13.6966C36.0233 14.2448 35.4401 14.679 34.7631 14.9993C34.0917 15.3141 33.3296 15.4633 32.4766 15.4471C31.6622 15.4308 30.9716 15.2571 30.4048 14.926C29.8435 14.5895 29.3978 14.1444 29.0676 13.5908C28.7429 13.0372 28.5255 12.4211 28.4155 11.7427C28.3054 11.0588 28.2944 10.3586 28.3825 9.64219L28.4485 9.08042C28.5586 8.32055 28.7649 7.59056 29.0676 6.89037C29.3757 6.19021 29.7747 5.56603 30.2645 5.01784C30.7597 4.46424 31.343 4.03003 32.0144 3.71521C32.6913 3.40041 33.4506 3.25116 34.2926 3.26744C35.107 3.27829 35.7947 3.45198 36.3561 3.78847C36.9231 4.11958 37.3686 4.56192 37.6933 5.11556C38.0237 5.66374 38.2438 6.27976 38.3537 6.96366C38.4639 7.64211 38.4748 8.33413 38.3868 9.03971ZM35.869 9.64219L35.9518 9.056C35.9958 8.68692 36.0176 8.288 36.0176 7.85921C36.0233 7.425 35.9736 7.00979 35.869 6.61358C35.7648 6.21192 35.5774 5.88355 35.308 5.62845C35.0437 5.36792 34.6613 5.22682 34.1605 5.20511C33.6212 5.18882 33.159 5.29466 32.7738 5.5226C32.3941 5.75058 32.0749 6.05995 31.8163 6.45074C31.5631 6.83611 31.3623 7.25945 31.2137 7.72082C31.0706 8.17674 30.9661 8.6245 30.9 9.06416L30.8258 9.65031C30.7762 10.014 30.7487 10.4156 30.7432 10.8553C30.7432 11.2895 30.7955 11.7074 30.9 12.1091C31.0046 12.5053 31.1917 12.8336 31.4614 13.0942C31.731 13.3547 32.1162 13.4958 32.6169 13.5175C33.1508 13.5338 33.6075 13.4252 33.9872 13.1919C34.3724 12.9585 34.6943 12.6491 34.9529 12.2637C35.2116 11.873 35.4151 11.4496 35.5637 10.9937C35.7123 10.5323 35.8141 10.0818 35.869 9.64219ZM49.6951 9.03971L49.6292 9.60964C49.519 10.3695 49.3126 11.1022 49.0101 11.8078C48.7076 12.5134 48.3114 13.143 47.8215 13.6966C47.3316 14.2448 46.7484 14.679 46.0715 14.9993C45.4002 15.3141 44.6381 15.4633 43.7851 15.4471C42.9705 15.4308 42.2802 15.2571 41.7132 14.926C41.1518 14.5895 40.7063 14.1444 40.3759 13.5908C40.0512 13.0372 39.8339 12.4211 39.724 11.7427C39.6138 11.0588 39.6029 10.3586 39.6909 9.64219L39.7568 9.08042C39.867 8.32055 40.0734 7.59056 40.3759 6.89037C40.6841 6.19021 41.0831 5.56603 41.573 5.01784C42.0682 4.46424 42.6514 4.03003 43.3227 3.71521C43.9996 3.40041 44.7592 3.25116 45.6009 3.26744C46.4156 3.27829 47.1034 3.45198 47.6648 3.78847C48.2314 4.11958 48.6773 4.56192 49.0016 5.11556C49.332 5.66374 49.5521 6.27976 49.662 6.96366C49.7722 7.64211 49.7831 8.33413 49.6951 9.03971ZM47.1777 9.64219L47.2601 9.056C47.3041 8.68692 47.3263 8.288 47.3263 7.85921C47.3316 7.425 47.2823 7.00979 47.1777 6.61358C47.0731 6.21192 46.8861 5.88355 46.6163 5.62845C46.3522 5.36792 45.9697 5.22682 45.4689 5.20511C44.9297 5.18882 44.4673 5.29466 44.0823 5.5226C43.7027 5.75058 43.3832 6.05995 43.1247 6.45074C42.8715 6.83611 42.6708 7.25945 42.5222 7.72082C42.3792 8.17674 42.2746 8.6245 42.2084 9.06416L42.134 9.65031C42.0847 10.014 42.0573 10.4156 42.0516 10.8553C42.0516 11.2895 42.1041 11.7074 42.2084 12.1091C42.313 12.5053 42.5003 12.8336 42.7697 13.0942C43.0395 13.3547 43.4248 13.4958 43.9253 13.5175C44.4592 13.5338 44.916 13.4252 45.2956 13.1919C45.6809 12.9585 46.0028 12.6491 46.2613 12.2637C46.5202 11.873 46.7237 11.4496 46.8723 10.9937C47.0206 10.5323 47.1227 10.0818 47.1777 9.64219ZM54.8458 3.43027L52.7577 15.2842H50.3389L52.4193 3.43027H54.8458ZM61.9117 3.43027L56.2162 9.33282L52.9968 12.2637L52.9803 9.77245L55.1843 7.31374L58.7832 3.43027H61.9117ZM57.0663 15.2842L54.557 9.71548L56.505 8.27442L59.8067 15.2842H57.0663ZM63.9836 13.2896L67.8383 3.43027H69.1259L69.2083 5.18882L65.1472 15.2842H63.7441L63.9836 13.2896ZM64.3548 3.43027L64.7017 13.5094L64.2889 15.2842H62.7122L62.0026 3.43027H64.3548ZM69.9429 13.257L73.3852 3.43027H75.8283L71.3629 15.2842H69.8028L69.9429 13.257ZM69.8852 3.43027L70.6529 13.5582L70.3391 15.2842H68.9279L68.0447 4.98529L68.5645 3.43027H69.8852ZM81.2185 5.57961L76.3816 15.2842H73.7236L80.1454 3.43027H81.8457L81.2185 5.57961ZM82.1761 15.2842L80.7068 5.32721L80.7976 3.43027H82.3906L84.6604 15.2842H82.1761ZM82.7868 10.8716L82.4483 12.7848H76.2661L76.6042 10.8716H82.7868ZM87.8632 3.43027L92.0978 3.43841C92.8297 3.44926 93.4928 3.58224 94.087 3.83735C94.6868 4.09242 95.152 4.47508 95.482 4.98529C95.8176 5.49547 95.9581 6.14408 95.9028 6.93108C95.8479 7.57698 95.6884 8.12245 95.4242 8.56753C95.1657 9.01258 94.816 9.38979 94.3758 9.69919C93.9412 10.0086 93.4404 10.2745 92.8737 10.4971L92.0316 10.896H88.1192L88.4492 8.99087L91.1402 9.00716C91.5421 9.00174 91.908 8.92574 92.238 8.77918C92.5684 8.63266 92.8406 8.42098 93.0551 8.14416C93.2752 7.86192 93.4129 7.51997 93.4678 7.11835C93.5175 6.76556 93.4928 6.4589 93.3935 6.19837C93.3002 5.93785 93.1378 5.73429 92.9068 5.58774C92.6754 5.44122 92.381 5.3625 92.0235 5.35163L89.9516 5.3435L88.2016 15.2842H85.7832L87.8632 3.43027ZM92.362 15.2842L90.6285 10.0004L93.0635 9.98414L94.9372 15.1539V15.2842H92.362ZM100.022 15.2842H97.3475L97.6941 13.3791L100.096 13.3954C100.845 13.3954 101.475 13.2217 101.986 12.8743C102.498 12.5216 102.9 12.0602 103.192 11.4903C103.489 10.915 103.69 10.2935 103.794 9.62589L103.869 9.04787C103.918 8.63537 103.934 8.21742 103.918 7.79408C103.901 7.36529 103.822 6.96908 103.678 6.60542C103.541 6.2418 103.321 5.94598 103.018 5.718C102.716 5.49006 102.306 5.36792 101.788 5.35163L99.0479 5.3435L99.3863 3.43027L101.863 3.43841C102.666 3.45469 103.365 3.61753 103.959 3.9269C104.554 4.23085 105.041 4.64335 105.42 5.1644C105.8 5.68545 106.064 6.28247 106.213 6.9555C106.361 7.62311 106.392 8.32601 106.304 9.06416L106.237 9.64219C106.127 10.4346 105.899 11.1755 105.552 11.8648C105.211 12.5541 104.768 13.1566 104.223 13.6722C103.684 14.1824 103.06 14.5813 102.35 14.869C101.64 15.1512 100.864 15.2896 100.022 15.2842ZM100.806 3.43027L98.7179 15.2842H96.2991L98.3794 3.43027H100.806ZM115.144 13.3791L114.805 15.2842H108.59L108.92 13.3791H115.144ZM111.47 3.43027L109.382 15.2842H106.964L109.044 3.43027H111.47ZM115.235 8.25813L114.904 10.1144H109.498L109.828 8.25813H115.235ZM116.877 3.43027L116.539 5.3435H110.332L110.678 3.43027H116.877ZM127.781 3.43027L125.693 15.2842H123.349L120.022 7.24861L118.611 15.2842H116.192L118.272 3.43027H120.625L123.959 11.474L125.371 3.43027H127.781Z" fill="black"/>
</svg>
